<svg width="36" height="60" fill="none" xmlns="http://www.w3.org/2000/svg"><path d="M31.412 32.624l-5.3-5.3 3.525-3.575a5 5 0 000-7.075 5.113 5.113 0 00-7.063 0l-3.475 3.575-2.65-2.65a5.125 5.125 0 00-7.076 0 5 5 0 000 7.075c1.35 1.338.35 0-1.625 1.913a5 5 0 00-1 5.587A4.925 4.925 0 003.761 40.2a5 5 0 00-2.338 8.337C8.098 55.275 11.386 60 19.099 60c6.25 0 9.512-3.287 12.375-6.15a14.999 14.999 0 00-.063-21.226zm-7.076-14.138a2.5 2.5 0 014.275 1.763c0 1.488-.962 1.988-4.275 5.3L20.8 22.024l3.537-3.538zm5.313 33.589l-1.8 1.762a12.5 12.5 0 01-17.676 0c-7.5-7.5-7.8-7.5-7.8-8.837a2.5 2.5 0 014.263-1.763c6.6 6.6 6.337 6.55 7.075 6.55a1.249 1.249 0 00.875-2.137l-8.838-8.838a2.499 2.499 0 010-3.538 2.575 2.575 0 013.538 0l8.838 8.838a1.25 1.25 0 101.775-1.762L9.436 31.887a2.502 2.502 0 013.537-3.538c11.25 11.313 10.6 10.826 11.338 10.826a1.25 1.25 0 00.888-2.125L11.086 22.899a2.5 2.5 0 010-3.538 2.5 2.5 0 013.525 0l15 15a12.5 12.5 0 01.038 17.714z" fill="#CFC393"/><path d="M18.208 14.786a1.252 1.252 0 001.776 0l6.437-6.438c4.463-4.462-2.025-11.8-7.325-6.5l-.4-.412a4.888 4.888 0 00-6.913 6.912l6.425 6.438zm-2.3-12.188c.75.225 1.013.6 2.3 1.9a1.251 1.251 0 001.776 0l1.25-1.25a2.391 2.391 0 013.375 3.388l-5.513 5.5c-5.925-5.888-6.25-5.888-6.25-7.238a2.399 2.399 0 013.062-2.3z" fill="#CFC393"/></svg>