<svg width="101" height="16" fill="none" xmlns="http://www.w3.org/2000/svg"><path d="M99.118 8.89a2.144 2.144 0 01-2.14 2.144H84.616a2.144 2.144 0 01-2.14-2.144V6.256a2.143 2.143 0 012.14-2.144h12.348a2.143 2.143 0 012.14 2.144l.014 2.634zm-2.14-6.665H84.56a4.024 4.024 0 00-3.95 4.03V8.88a4.024 4.024 0 003.95 4.041h12.418a4.03 4.03 0 004.02-4.024V6.256a4.026 4.026 0 00-4.02-4.024M47.1 8.89h-1.881v4.097h1.88V8.889zm14.898-6.725h-1.88v4.097h1.88V2.165zm-3.14 4.472H48.355a1.26 1.26 0 01-1.26-1.256V2.165H45.22V5.38a3.157 3.157 0 003.136 3.137h10.503a1.256 1.256 0 011.256 1.256v3.217h1.88V9.763a3.157 3.157 0 00-3.136-3.136m6.904-4.462h-1.88v4.097h1.88V2.165zm9.307 5.414a8.68 8.68 0 002.687-2.105l2.859-3.315h-2.491l-1.793 2.087a6.876 6.876 0 01-5.21 2.385h-4.107a3.157 3.157 0 00-3.14 3.137v3.217h1.88v-3.22a1.255 1.255 0 011.26-1.257h4.108a6.876 6.876 0 015.21 2.386l1.732 2.006h2.484l-2.806-3.234a8.771 8.771 0 00-2.688-2.105M41.821 8.89h-.417a2.62 2.62 0 01-2.572 2.143H27.41a2.62 2.62 0 01-2.572-2.144h-1.89a.838.838 0 000 .123 4.504 4.504 0 004.462 3.908h11.43a4.504 4.504 0 004.454-3.901.812.812 0 000-.123h-1.473V8.89zm1.482-2.747a4.504 4.504 0 00-4.455-3.898H27.422a4.504 4.504 0 00-4.459 3.898.839.839 0 000 .122h1.891a2.624 2.624 0 012.575-2.143h11.419a2.624 2.624 0 012.547 2.02c.017.083.025.166.024.25a.245.245 0 01-.245.245H31.28v1.88h10.173a1.817 1.817 0 001.295-.512c.227-.225.389-.51.466-.82.083-.3.12-.61.113-.92a.812.812 0 000-.122M4.849.58a.99.99 0 110 1.979.99.99 0 010-1.979zM1.985 3.099a.993.993 0 110 1.985.993.993 0 010-1.985zM.99 6.713a.993.993 0 11.006 1.986.993.993 0 01-.007-1.986zm1.104 3.541a.993.993 0 110 1.985.993.993 0 010-1.985zm6.656 2.92a.993.993 0 110 1.986.993.993 0 010-1.986zm3.407-1.603a.992.992 0 110 1.985.992.992 0 010-1.985zm2.008-3.21a.993.993 0 110 1.985.993.993 0 010-1.985zM12.02 1.5a.993.993 0 11.007 1.986.993.993 0 01-.006-1.986zm2.09 3.132a.993.993 0 110 1.986.993.993 0 010-1.986zM8.587 0a.993.993 0 110 1.986.993.993 0 010-1.986zm4.183 6.524a.849.849 0 110 1.698.849.849 0 010-1.698zm-.698 2.736a.849.849 0 11.007 1.697.849.849 0 01-.007-1.698zm-2.075 1.937a.849.849 0 110 1.697.849.849 0 010-1.697zm-2.804.531a.85.85 0 110 1.698.85.85 0 010-1.698zm-2.649-1.07a.849.849 0 110 1.697.849.849 0 010-1.697zM2.896 8.361a.849.849 0 110 1.698.849.849 0 010-1.698zm-.133-2.806a.849.849 0 110 1.697.849.849 0 010-1.697zm1.442-2.456a.849.849 0 11.007 1.697.849.849 0 01-.007-1.697zm2.562-1.316a.849.849 0 11.007 1.698.849.849 0 01-.007-1.698zm2.852.293a.849.849 0 11.007 1.697.849.849 0 01-.007-1.697zm2.226 1.766a.849.849 0 11.007 1.698.849.849 0 01-.007-1.698zM8.147 3.33a.702.702 0 110 1.402.702.702 0 010-1.403zm1.867.8a.702.702 0 110 1.403.702.702 0 010-1.404zm1.117 1.673a.702.702 0 110 1.403.702.702 0 010-1.403zm.055 2.014a.702.702 0 110 1.404.702.702 0 010-1.404zm-1.094 1.711a.701.701 0 110 1.403.701.701 0 010-1.403zm-1.82.88a.701.701 0 110 1.403.701.701 0 010-1.403zm-2.039-.243a.701.701 0 110 1.403.701.701 0 010-1.403zM4.662 8.863a.701.701 0 110 1.403.701.701 0 010-1.403zM4.06 6.957a.701.701 0 110 1.403.701.701 0 010-1.403zm.563-1.958a.701.701 0 110 1.403.701.701 0 010-1.403zm1.5-1.349a.701.701 0 110 1.404.701.701 0 010-1.403zM7.8 5.045a.526.526 0 110 1.052.526.526 0 010-1.052zm.082 3.845a.526.526 0 11.007 1.051.526.526 0 01-.007-1.052zm1.644-3.177a.526.526 0 11-.687.798.526.526 0 01.687-.798zM6.812 8.624a.526.526 0 11-.744.745.526.526 0 01.744-.745zm-.664-1.419a.526.526 0 11-.744.745.526.526 0 01.744-.745zM6.744 5.7a.523.523 0 11-.74.738.523.523 0 01.74-.738zm3.215 1.337a.526.526 0 11-.74.748.526.526 0 01.74-.748zm-.407 1.394a.526.526 0 11-.74.748.526.526 0 01.74-.748zm-4.555 4.26a.994.994 0 11.006 1.987.994.994 0 01-.006-1.987z" fill="#122A4B"/></svg>