<svg width="12" height="10" fill="none" xmlns="http://www.w3.org/2000/svg"><path d="M10.429 3.42l-.76-2.28A1.664 1.664 0 008.089 0H3.022a1.664 1.664 0 00-1.58 1.14l-.76 2.28A1.111 1.111 0 000 4.443v2.778c0 .41.224.765.556.957v1.265A.556.556 0 001.11 10h.556a.556.556 0 00.555-.556v-1.11H8.89v1.11a.556.556 0 00.555.556H10a.555.555 0 00.556-.556V8.18a1.105 1.105 0 00.555-.957V4.444a1.112 1.112 0 00-.682-1.025zM3.023 1.11h5.065c.24 0 .451.152.527.38l.614 1.842H1.882l.614-1.842a.556.556 0 01.527-.38zM1.944 6.667a.834.834 0 11.001-1.668.834.834 0 010 1.668zm7.223 0a.834.834 0 110-1.668.834.834 0 010 1.668z" fill="#7F8884"/></svg>