<svg width="10" height="13" fill="none" xmlns="http://www.w3.org/2000/svg"><path d="M5.725 2.575a1.287 1.287 0 100-2.575 1.287 1.287 0 000 2.575zm.63 4.035c.158.237.393.417.664.507l1.722.574.407-1.22-1.722-.574-1.07-1.606a1.298 1.298 0 00-.495-.437l-.923-.462a1.28 1.28 0 00-.887-.096l-2.056.513a1.289 1.289 0 00-.84.674L0 6.793l1.152.576 1.154-2.31L3.737 4.7l-1.161 5.372L.211 11.7l.73 1.06 2.365-1.627a1.28 1.28 0 00.528-.788l.333-1.537 1.62 1.215L6.382 13l1.262-.253-.595-2.978a1.287 1.287 0 00-.49-.777L5.16 7.944l.417-2.5.777 1.167z" fill="#7F8884"/></svg>