<svg width="13" height="5" fill="none" xmlns="http://www.w3.org/2000/svg"><path d="M12.416 2.43A8.824 8.824 0 006.322 0 8.83 8.83 0 00.224 2.435.762.762 0 000 2.979c0 .21.083.408.224.54L1.476 4.77c.289.288.809.28 1.077.012a5.533 5.533 0 011.279-.89c.282-.136.383-.47.383-.737V1.772c.672-.18 1.436-.197 2.107-.197.712 0 1.457.017 2.108.196v1.385c0 .35.141.627.375.74.476.239.91.538 1.285.89a.786.786 0 00.534.214c.207 0 .4-.079.545-.223l1.252-1.252a.765.765 0 00.224-.546c0-.207-.08-.4-.23-.55z" fill="currentColor"/></svg>