<svg width="16" height="20" fill="none" xmlns="http://www.w3.org/2000/svg"><path d="M6.363.194A2.714 2.714 0 003.648 2.91v10.856a2.714 2.714 0 002.715 2.715h6.786a2.714 2.714 0 002.715-2.715V6.301h-.003V4.827c0-.539-.214-1.056-.596-1.438L12.668.79a2.036 2.036 0 00-1.439-.596H6.361h.002zm6.786 14.929H6.364a1.357 1.357 0 01-1.357-1.358V2.91a1.357 1.357 0 011.356-1.36h4.07v2.036a2.036 2.036 0 002.037 2.036h2.035v1.44h.002v6.702a1.357 1.357 0 01-1.357 1.357zm1.074-10.857h-1.755a.679.679 0 01-.678-.679V1.832l2.433 2.434z" fill="#122A4B"/><path d="M.938 4.266A1.357 1.357 0 012.295 2.91v10.857a4.071 4.071 0 004.07 4.071h6.786a1.357 1.357 0 01-1.357 1.357H6.081a5.143 5.143 0 01-5.144-5.143V4.266z" fill="#122A4B"/></svg>