<svg width="24" height="24" fill="none" xmlns="http://www.w3.org/2000/svg"><path d="M5.087 4.573H.7a.7.7 0 010-1.4h4.387a.7.7 0 010 1.4z" fill="#fff"/><path d="M7.597 7.077a3.21 3.21 0 01-3.206-3.206A3.21 3.21 0 017.597.664a3.21 3.21 0 013.207 3.207 3.21 3.21 0 01-3.207 3.206zm0-5.013c-.996 0-1.806.81-1.806 1.807 0 .996.81 1.806 1.806 1.806s1.807-.81 1.807-1.806-.81-1.807-1.807-1.807zM23.1 4.573H12.639a.7.7 0 010-1.4H23.1a.7.7 0 010 1.4zm-6.104 10.963a3.21 3.21 0 01-3.207-3.206 3.21 3.21 0 013.207-3.207 3.21 3.21 0 013.206 3.207 3.21 3.21 0 01-3.206 3.206zm0-5.013c-.996 0-1.807.81-1.807 1.807 0 .996.81 1.806 1.807 1.806.996 0 1.806-.81 1.806-1.806s-.81-1.807-1.806-1.807zm-5.049 2.508H.7a.7.7 0 010-1.4h11.247a.7.7 0 010 1.4z" fill="#fff"/><path d="M23.1 13.031h-3.603a.7.7 0 010-1.4H23.1a.7.7 0 010 1.4zM6.808 24a3.21 3.21 0 01-3.206-3.207 3.21 3.21 0 013.206-3.207 3.21 3.21 0 013.207 3.207A3.21 3.21 0 016.808 24zm0-5.013c-.996 0-1.806.81-1.806 1.806s.81 1.807 1.806 1.807 1.807-.81 1.807-1.807c0-.996-.81-1.806-1.807-1.806zm16.295 2.503H11.856a.7.7 0 010-1.4h11.247a.7.7 0 010 1.4z" fill="#fff"/><path d="M4.303 21.49H.7a.7.7 0 010-1.4h3.603a.7.7 0 010 1.4z" fill="#fff"/></svg>