<svg width="13" height="13" fill="none" xmlns="http://www.w3.org/2000/svg"><path d="M6.667.5A5.784 5.784 0 00.889 6.278a5.784 5.784 0 005.778 5.778 5.784 5.784 0 005.777-5.778A5.784 5.784 0 006.667.5zm-.241 9.63a.723.723 0 11.001-1.446.723.723 0 01-.001 1.446zm.722-2.937v.77a.24.24 0 01-.24.24h-.964a.24.24 0 01-.24-.24V6.759c0-.53.432-.963.963-.963a.964.964 0 000-1.926.964.964 0 00-.963.963v.241a.24.24 0 01-.241.24H4.5a.24.24 0 01-.24-.24v-.24a2.41 2.41 0 012.407-2.408 2.41 2.41 0 012.407 2.407 2.405 2.405 0 01-1.926 2.36z" fill="#363636"/></svg>