<svg width="26" height="15" fill="none" xmlns="http://www.w3.org/2000/svg"><path d="M22.293 9.334c.86.843 1.77 1.627 2.537 2.555.34.409.664.834.91 1.311.35.682.035 1.423-.57 1.465H21.4c-.97.077-1.754-.315-2.4-.98-.52-.536-1.005-1.098-1.508-1.651a3.85 3.85 0 00-.68-.605c-.52-.332-.962-.23-1.26.306-.298.546-.366 1.15-.4 1.763-.043.886-.307 1.125-1.2 1.167-1.907.094-3.72-.196-5.397-1.158-1.481-.852-2.63-2.044-3.635-3.407C2.963 7.452 1.473 4.548.128 1.567-.17.894.052.537.792.519a89.034 89.034 0 013.694 0c.503.009.834.299 1.022.767.664 1.635 1.48 3.202 2.502 4.641.273.384.553.767.945 1.04.434.297.775.204.979-.29.128-.307.187-.639.221-.971.094-1.141.11-2.274-.06-3.415-.102-.707-.502-1.167-1.208-1.303C8.529.92 8.581.784 8.751.579 9.057.221 9.338 0 9.908 0h4.265c.672.136.817.434.91 1.107v4.744c-.008.264.128 1.039.605 1.21.374.118.63-.18.851-.418 1.022-1.082 1.754-2.368 2.4-3.696.29-.588.537-1.193.775-1.797.179-.452.46-.673.962-.665h4.103c.119 0 .247 0 .366.026.69.12.885.417.664 1.09-.34 1.065-.988 1.942-1.635 2.836-.68.945-1.413 1.865-2.094 2.819-.604.886-.561 1.32.213 2.078z" fill="currentColor"/></svg>