<svg width="11" height="18" fill="none" xmlns="http://www.w3.org/2000/svg"><path d="M10.548 10.738c.408-.409.466-.992.116-1.576-.291-.467-.817-.7-1.4-.584a1.972 1.972 0 00-.7.35c-1.81 1.226-4.26 1.168-6.07-.058l-.35-.175C1.502 8.403.86 8.52.51 9.104c-.408.583-.35 1.225.175 1.75.117.117.234.176.292.292l.058.058c.817.643 1.81 1.051 3.093 1.226l-.758.759-1.984 1.984c-.175.175-.409.467-.409.875a1.4 1.4 0 00.817 1.284c.175.117.35.117.525.117.292 0 .642-.117.876-.409l2.276-2.276.058-.058s.058 0 .058.058c.467.526.992.992 1.46 1.518l.7.7c.291.292.525.408.875.408.525.059 1.109-.291 1.342-.817a1.168 1.168 0 00-.292-1.4c-.583-.584-1.167-1.226-1.809-1.81l-.992-.991c.525-.059 1.109-.175 1.634-.409.876-.292 1.517-.7 2.043-1.225z" fill="#122A4B"/><path d="M5.529 9.104c2.51 0 4.552-1.984 4.552-4.494a4.59 4.59 0 00-1.342-3.268C7.863.467 6.754 0 5.587 0 3.078 0 1.094 2.042 1.035 4.493c0 1.226.467 2.335 1.343 3.21.817.934 1.925 1.4 3.151 1.4zM4.245 3.268a1.81 1.81 0 011.284-.525c1.05 0 1.809.817 1.809 1.809 0 1.05-.817 1.809-1.809 1.809-1.05 0-1.81-.817-1.81-1.81 0-.466.176-.933.526-1.283z" fill="#122A4B"/><path d="M10.548 10.738c.408-.409.466-.992.116-1.576-.291-.467-.817-.7-1.4-.584a1.972 1.972 0 00-.7.35c-1.81 1.226-4.26 1.168-6.07-.058l-.35-.175C1.502 8.403.86 8.52.51 9.104c-.408.583-.35 1.225.175 1.75.117.117.234.176.292.292l.058.058c.817.643 1.81 1.051 3.093 1.226l-.758.759-1.984 1.984c-.175.175-.409.467-.409.875a1.4 1.4 0 00.817 1.284c.175.117.35.117.525.117.292 0 .642-.117.876-.409l2.276-2.276.058-.058s.058 0 .058.058c.467.526.992.992 1.46 1.518l.7.7c.291.292.525.408.875.408.525.059 1.109-.291 1.342-.817a1.168 1.168 0 00-.292-1.4c-.583-.584-1.167-1.226-1.809-1.81l-.992-.991c.525-.059 1.109-.175 1.634-.409.876-.292 1.517-.7 2.043-1.225z" fill="#122A4B"/></svg>