<svg width="16" height="21" fill="none" xmlns="http://www.w3.org/2000/svg"><path d="M15 5.667v14H1V1h8.91M15 5.667L9.91 1M15 5.667H9.91V1" stroke="currentColor" stroke-linejoin="round"/><path d="M3.209 15a.126.126 0 01-.093-.037.126.126 0 01-.038-.093v-3.544c0-.04.011-.073.033-.098a.133.133 0 01.098-.038h1.459c.44 0 .784.103 1.034.31.25.207.376.508.376.904 0 .392-.125.69-.376.893-.25.2-.595.299-1.034.299h-.8v1.274a.13.13 0 01-.039.098.145.145 0 01-.098.033H3.21zm1.432-2.014c.21 0 .37-.049.479-.147.112-.101.169-.248.169-.44 0-.19-.055-.337-.164-.442-.105-.105-.267-.158-.484-.158h-.784v1.187h.784zM6.803 15a.126.126 0 01-.093-.037.126.126 0 01-.038-.093v-3.544c0-.04.011-.073.033-.098a.133.133 0 01.098-.038h1.328c1.071 0 1.617.493 1.64 1.48.006.21.01.352.01.425 0 .069-.004.209-.01.42-.015.507-.153.883-.415 1.126-.257.24-.657.36-1.197.36H6.803zm1.328-.631c.302 0 .52-.067.654-.201.134-.135.205-.358.212-.67.007-.218.011-.354.011-.408 0-.059-.004-.193-.01-.403-.008-.298-.083-.516-.224-.654-.142-.141-.365-.212-.67-.212H7.44v2.548h.691zm2.5.631a.126.126 0 01-.092-.037.126.126 0 01-.039-.093v-3.544c0-.04.011-.073.033-.098a.133.133 0 01.098-.038H13a.13.13 0 01.098.038.133.133 0 01.039.098v.392a.126.126 0 01-.039.092.133.133 0 01-.098.038h-1.742v1.024h1.633a.13.13 0 01.098.038.126.126 0 01.039.092v.393a.126.126 0 01-.038.092.133.133 0 01-.099.038h-1.633v1.345a.126.126 0 01-.038.093.133.133 0 01-.098.038h-.49z" fill="currentColor"/></svg>