<svg width="38" height="62" fill="none" xmlns="http://www.w3.org/2000/svg"><path d="M38 38.024l-.867-3.25c-1.324.336-2.625.722-3.95 1.107-.65-2.191-1.324-4.335-2.094-6.478A128.403 128.403 0 0016.327 0l-2.793 1.878a127.007 127.007 0 0114.4 28.609c.747 2.095 1.42 4.238 2.047 6.357a127.97 127.97 0 00-16.64 6.743l9.247-18.543-3.01-1.493L8.26 46.236A130.407 130.407 0 000 51.124l1.83 2.842c1.228-.795 2.48-1.566 3.733-2.312l-4.287 8.573 3.01 1.493 6.502-13.028a124.053 124.053 0 0120.084-8.573 125.557 125.557 0 013.709 21.577l3.37-.29A129.337 129.337 0 0034.1 39.109c1.3-.361 2.6-.747 3.901-1.084z" fill="#005B9C"/></svg>