<svg width="62" height="64" fill="none" xmlns="http://www.w3.org/2000/svg"><path fill-rule="evenodd" clip-rule="evenodd" d="M34.692 39.242L21.379 57.178c-.343.459-.25 1.11.207 1.455a1.031 1.031 0 001.448-.208l13.316-17.94c.222-.298.27-.691.124-1.033a1.032 1.032 0 00-1.78-.215l-.002.005z" fill="#CFC393"/><mask id="a" maskUnits="userSpaceOnUse" x="0" y="0" width="62" height="64" fill="#000"><path fill="#fff" d="M0 0h62v64H0z"/><path d="M2.22 44.175l5.522 1.853c.186.068.381.103.579.104a1.79 1.79 0 00.91-.253l18.891-11.371c.24.683.53 1.348.866 1.99l-3.31 4.458c-.277.378-.396.85-.33 1.314l.273 1.925-2.054.61a1.777 1.777 0 00-1.276 1.73c.02.435.074.868.16 1.294l.082.52-2.07.614a1.787 1.787 0 00-1.243 1.963l.225 1.591-1.989.595a3.21 3.21 0 00-2.217 3.785l1.138 5.068a1.76 1.76 0 001.705 1.4c.046 0 .094 0 .142-.006l5.804-.4a1.74 1.74 0 001.329-.711l13.588-18.304a14.422 14.422 0 0013.84-4.786 14.58 14.58 0 002.591-14.472 13.004 13.004 0 005.295-13.616c-1.19-5.2-5.427-9.14-10.68-9.927a12.897 12.897 0 00-13.1 6.36 14.405 14.405 0 00-10.82 4.703 14.547 14.547 0 00-3.723 11.238l-4.771 2.866c-.39.246-.67.634-.781 1.082l-.473 1.881-2.13-.22a1.771 1.771 0 00-1.843 1.11 8.71 8.71 0 00-.341 1.282l-.118.498-2.128-.217a1.77 1.77 0 00-1.923 1.33l-.39 1.559-2.061-.208a3.118 3.118 0 00-1.966.432 3.183 3.183 0 00-1.527 2.228l-.864 5.112a1.742 1.742 0 001.188 1.996zm50.255-8.14c-2.782 4.769-8.372 7.11-13.702 5.738a1.032 1.032 0 00-1.084.386L23.784 60.895l-5.441.374-1.089-4.821a1.16 1.16 0 01.196-.935c.147-.196.353-.338.588-.407l2.236-.668a1.767 1.767 0 001.249-1.962l-.225-1.59 2.07-.615a1.767 1.767 0 001.247-1.966l-.123-.802c-.047-.304-.093-.583-.118-.771l2.088-.62a1.768 1.768 0 001.241-1.961l-.291-2.058 3.634-4.897c.25-.336.274-.79.061-1.151-3.16-5.344-1.923-12.21 2.902-16.1a12.372 12.372 0 0116.274.64c.996.935 1.83 2.03 2.465 3.242-1.19.572-2.476.919-3.792 1.022a4.131 4.131 0 00-3.92-3.46 4.128 4.128 0 00-4.159 3.166 4.15 4.15 0 002.258 4.727 4.113 4.113 0 005.061-1.28c.235-.324.42-.681.55-1.06a12.78 12.78 0 004.814-1.203 12.503 12.503 0 01-1.085 10.296zm-8.897-12.127a2.048 2.048 0 011.303-.47 2.07 2.07 0 011.944 1.384 10.627 10.627 0 01-3.246-.914h-.001zm2.856 2.964a2.05 2.05 0 01-2.118.647 2.063 2.063 0 01-1.475-1.659 12.71 12.71 0 003.594 1.012zm1.65-23.791c4.692-.007 8.856 3.018 10.32 7.495a10.926 10.926 0 01-3.884 12.185 14.298 14.298 0 00-2.827-3.697c-.31-.287-.629-.548-.954-.806a14.373 14.373 0 00-9.677-10.116 14.52 14.52 0 00-1.863-.432 10.793 10.793 0 018.885-4.629zM3.946 37.413a1.12 1.12 0 01.542-.79c.206-.127.448-.18.689-.153l2.326.24c.875.1 1.686-.473 1.888-1.334l.391-1.56 2.151.223a1.786 1.786 0 001.9-1.351l.182-.768c.072-.305.136-.589.185-.777l2.166.224a1.753 1.753 0 001.893-1.332l.51-2.026 5.214-3.13a1.04 1.04 0 00.493-1.04c-.885-6.057 2.74-11.864 8.554-13.7 5.813-1.835 12.093.843 14.816 6.32a14.235 14.235 0 00-7.357-1.267 14.468 14.468 0 00-10.271 5.733 14.603 14.603 0 00-2.661 11.498L8.29 44.02l-5.168-1.734.824-4.873z"/></mask><path d="M2.22 44.175l5.522 1.853c.186.068.381.103.579.104a1.79 1.79 0 00.91-.253l18.891-11.371c.24.683.53 1.348.866 1.99l-3.31 4.458c-.277.378-.396.85-.33 1.314l.273 1.925-2.054.61a1.777 1.777 0 00-1.276 1.73c.02.435.074.868.16 1.294l.082.52-2.07.614a1.787 1.787 0 00-1.243 1.963l.225 1.591-1.989.595a3.21 3.21 0 00-2.217 3.785l1.138 5.068a1.76 1.76 0 001.705 1.4c.046 0 .094 0 .142-.006l5.804-.4a1.74 1.74 0 001.329-.711l13.588-18.304a14.422 14.422 0 0013.84-4.786 14.58 14.58 0 002.591-14.472 13.004 13.004 0 005.295-13.616c-1.19-5.2-5.427-9.14-10.68-9.927a12.897 12.897 0 00-13.1 6.36 14.405 14.405 0 00-10.82 4.703 14.547 14.547 0 00-3.723 11.238l-4.771 2.866c-.39.246-.67.634-.781 1.082l-.473 1.881-2.13-.22a1.771 1.771 0 00-1.843 1.11 8.71 8.71 0 00-.341 1.282l-.118.498-2.128-.217a1.77 1.77 0 00-1.923 1.33l-.39 1.559-2.061-.208a3.118 3.118 0 00-1.966.432 3.183 3.183 0 00-1.527 2.228l-.864 5.112a1.742 1.742 0 001.188 1.996zm50.255-8.14c-2.782 4.769-8.372 7.11-13.702 5.738a1.032 1.032 0 00-1.084.386L23.784 60.895l-5.441.374-1.089-4.821a1.16 1.16 0 01.196-.935c.147-.196.353-.338.588-.407l2.236-.668a1.767 1.767 0 001.249-1.962l-.225-1.59 2.07-.615a1.767 1.767 0 001.247-1.966l-.123-.802c-.047-.304-.093-.583-.118-.771l2.088-.62a1.768 1.768 0 001.241-1.961l-.291-2.058 3.634-4.897c.25-.336.274-.79.061-1.151-3.16-5.344-1.923-12.21 2.902-16.1a12.372 12.372 0 0116.274.64c.996.935 1.83 2.03 2.465 3.242-1.19.572-2.476.919-3.792 1.022a4.131 4.131 0 00-3.92-3.46 4.128 4.128 0 00-4.159 3.166 4.15 4.15 0 002.258 4.727 4.113 4.113 0 005.061-1.28c.235-.324.42-.681.55-1.06a12.78 12.78 0 004.814-1.203 12.503 12.503 0 01-1.085 10.296zm-8.897-12.127a2.048 2.048 0 011.303-.47 2.07 2.07 0 011.944 1.384 10.627 10.627 0 01-3.246-.914h-.001zm2.856 2.964a2.05 2.05 0 01-2.118.647 2.063 2.063 0 01-1.475-1.659 12.71 12.71 0 003.594 1.012zm1.65-23.791c4.692-.007 8.856 3.018 10.32 7.495a10.926 10.926 0 01-3.884 12.185 14.298 14.298 0 00-2.827-3.697c-.31-.287-.629-.548-.954-.806a14.373 14.373 0 00-9.677-10.116 14.52 14.52 0 00-1.863-.432 10.793 10.793 0 018.885-4.629zM3.946 37.413a1.12 1.12 0 01.542-.79c.206-.127.448-.18.689-.153l2.326.24c.875.1 1.686-.473 1.888-1.334l.391-1.56 2.151.223a1.786 1.786 0 001.9-1.351l.182-.768c.072-.305.136-.589.185-.777l2.166.224a1.753 1.753 0 001.893-1.332l.51-2.026 5.214-3.13a1.04 1.04 0 00.493-1.04c-.885-6.057 2.74-11.864 8.554-13.7 5.813-1.835 12.093.843 14.816 6.32a14.235 14.235 0 00-7.357-1.267 14.468 14.468 0 00-10.271 5.733 14.603 14.603 0 00-2.661 11.498L8.29 44.02l-5.168-1.734.824-4.873z" fill="#CFC393"/><path d="M2.22 44.175l5.522 1.853c.186.068.381.103.579.104a1.79 1.79 0 00.91-.253l18.891-11.371c.24.683.53 1.348.866 1.99l-3.31 4.458c-.277.378-.396.85-.33 1.314l.273 1.925-2.054.61a1.777 1.777 0 00-1.276 1.73c.02.435.074.868.16 1.294l.082.52-2.07.614a1.787 1.787 0 00-1.243 1.963l.225 1.591-1.989.595a3.21 3.21 0 00-2.217 3.785l1.138 5.068a1.76 1.76 0 001.705 1.4c.046 0 .094 0 .142-.006l5.804-.4a1.74 1.74 0 001.329-.711l13.588-18.304a14.422 14.422 0 0013.84-4.786 14.58 14.58 0 002.591-14.472 13.004 13.004 0 005.295-13.616c-1.19-5.2-5.427-9.14-10.68-9.927a12.897 12.897 0 00-13.1 6.36 14.405 14.405 0 00-10.82 4.703 14.547 14.547 0 00-3.723 11.238l-4.771 2.866c-.39.246-.67.634-.781 1.082l-.473 1.881-2.13-.22a1.771 1.771 0 00-1.843 1.11 8.71 8.71 0 00-.341 1.282l-.118.498-2.128-.217a1.77 1.77 0 00-1.923 1.33l-.39 1.559-2.061-.208a3.118 3.118 0 00-1.966.432 3.183 3.183 0 00-1.527 2.228l-.864 5.112a1.742 1.742 0 001.188 1.996zm50.255-8.14c-2.782 4.769-8.372 7.11-13.702 5.738a1.032 1.032 0 00-1.084.386L23.784 60.895l-5.441.374-1.089-4.821a1.16 1.16 0 01.196-.935c.147-.196.353-.338.588-.407l2.236-.668a1.767 1.767 0 001.249-1.962l-.225-1.59 2.07-.615a1.767 1.767 0 001.247-1.966l-.123-.802c-.047-.304-.093-.583-.118-.771l2.088-.62a1.768 1.768 0 001.241-1.961l-.291-2.058 3.634-4.897c.25-.336.274-.79.061-1.151-3.16-5.344-1.923-12.21 2.902-16.1a12.372 12.372 0 0116.274.64c.996.935 1.83 2.03 2.465 3.242-1.19.572-2.476.919-3.792 1.022a4.131 4.131 0 00-3.92-3.46 4.128 4.128 0 00-4.159 3.166 4.15 4.15 0 002.258 4.727 4.113 4.113 0 005.061-1.28c.235-.324.42-.681.55-1.06a12.78 12.78 0 004.814-1.203 12.503 12.503 0 01-1.085 10.296zm-8.897-12.127a2.048 2.048 0 011.303-.47 2.07 2.07 0 011.944 1.384 10.627 10.627 0 01-3.246-.914h-.001zm2.856 2.964a2.05 2.05 0 01-2.118.647 2.063 2.063 0 01-1.475-1.659 12.71 12.71 0 003.594 1.012h0zm1.65-23.791c4.692-.007 8.856 3.018 10.32 7.495a10.926 10.926 0 01-3.884 12.185 14.298 14.298 0 00-2.827-3.697c-.31-.287-.629-.548-.954-.806a14.373 14.373 0 00-9.677-10.116 14.52 14.52 0 00-1.863-.432 10.793 10.793 0 018.885-4.629zM3.946 37.413a1.12 1.12 0 01.542-.79c.206-.127.448-.18.689-.153l2.326.24c.875.1 1.686-.473 1.888-1.334l.391-1.56 2.151.223a1.786 1.786 0 001.9-1.351l.182-.768c.072-.305.136-.589.185-.777l2.166.224a1.753 1.753 0 001.893-1.332l.51-2.026 5.214-3.13a1.04 1.04 0 00.493-1.04c-.885-6.057 2.74-11.864 8.554-13.7 5.813-1.835 12.093.843 14.816 6.32a14.235 14.235 0 00-7.357-1.267 14.468 14.468 0 00-10.271 5.733 14.603 14.603 0 00-2.661 11.498L8.29 44.02l-5.168-1.734.824-4.873z" stroke="#CFC393" mask="url(#a)"/><path fill-rule="evenodd" clip-rule="evenodd" d="M25.084 31.486c.482-.298.636-.93.345-1.419a1.032 1.032 0 00-1.408-.364L7.475 39.667a1.04 1.04 0 00.021 1.809c.327.18.724.171 1.042-.025l16.546-9.965z" fill="#CFC393"/></svg>