<svg width="60" height="44" fill="none" xmlns="http://www.w3.org/2000/svg"><path d="M53.182 0H6.818A6.826 6.826 0 000 6.818v30a6.826 6.826 0 006.818 6.818h46.364A6.826 6.826 0 0060 36.818v-30A6.826 6.826 0 0053.182 0zm4.09 6.818v10.228H35.456v-4.773a1.362 1.362 0 00-1.756-1.307l-8.506 2.552a6.805 6.805 0 00-3.376-1.79v-9h31.364a4.095 4.095 0 014.092 4.09zM30.714 30.682h-3.88L24.2 24.1c.356-.235.688-.504.994-.8l2.917.875 2.602 6.507zm-10.26-16.364a4.095 4.095 0 014.091 4.091 4.095 4.095 0 01-4.09 4.091 4.095 4.095 0 01-4.091-4.09 4.095 4.095 0 014.09-4.092zm-6.329 6.612l-5.943 1.783v-8.608l5.943 1.783a6.773 6.773 0 00-.489 2.521c0 .89.177 1.74.49 2.52zm-1.327 3.245l2.917-.875c.306.296.638.565.994.8l-2.632 6.582h-3.881l2.602-6.507zm13.986-3.245c.312-.78.489-1.63.489-2.52 0-.891-.177-1.74-.49-2.522l5.944-1.783v8.607l-5.943-1.782zM6.818 2.727h12.273v9.002a6.806 6.806 0 00-3.376 1.79L7.21 10.966a1.367 1.367 0 00-1.755 1.306v4.773H2.727V6.818a4.095 4.095 0 014.091-4.09zm-4.09 34.091V19.773h2.727v4.773a1.362 1.362 0 001.755 1.306l2.25-.675-2.544 6.362a1.363 1.363 0 001.266 1.87H15c.558 0 1.059-.34 1.266-.857l2.825-7.062v15.42H6.818a4.095 4.095 0 01-4.09-4.092zm50.454 4.091H21.818V25.49l2.825 7.063c.207.517.708.857 1.266.857h6.818a1.363 1.363 0 001.266-1.87l-2.545-6.362 2.25.675a1.363 1.363 0 001.756-1.306v-4.773h21.819v17.045a4.095 4.095 0 01-4.091 4.091z" fill="#CFC393"/></svg>