<svg width="60" height="60" fill="none" xmlns="http://www.w3.org/2000/svg"><path d="M42.333 32.388L38.7 28.756l9.598-9.597 1.243 1.242a1.757 1.757 0 002.75-.338l7.457-12.43a1.758 1.758 0 00-.264-2.147L54.513.515A1.758 1.758 0 0052.366.25l-12.43 7.458a1.758 1.758 0 00-.338 2.75l1.243 1.243-9.598 9.598-3.631-3.632A14.057 14.057 0 0023.97 4.082C19.448-.441 12.678-1.156 7.383 1.696a1.758 1.758 0 00-.41 2.79l6.598 6.597a1.76 1.76 0 010 2.486 1.76 1.76 0 01-2.486 0L4.488 6.972a1.758 1.758 0 00-2.79.41C-1.145 12.655-.455 19.43 4.083 23.967a14.058 14.058 0 0013.585 3.642l1.146 1.145L2.578 44.992a8.78 8.78 0 000 12.43c3.427 3.426 9.003 3.427 12.43 0l16.236-16.237 1.146 1.145a14.058 14.058 0 003.641 13.586c4.523 4.522 11.293 5.238 16.587 2.386a1.758 1.758 0 00.41-2.79l-6.597-6.597a1.76 1.76 0 010-2.486 1.76 1.76 0 012.486 0l6.597 6.597a1.758 1.758 0 002.79-.41c2.841-5.274 2.152-12.05-2.386-16.587a14.058 14.058 0 00-13.585-3.641zM52.998 3.97L56.028 7l-5.592 9.323-6.76-6.76 9.322-5.593zm-9.67 10.216l2.485 2.486-9.598 9.597-2.486-2.485 9.598-9.598zm-30.807 40.75a5.28 5.28 0 01-7.458 0 5.266 5.266 0 010-7.458L21.3 31.24l7.458 7.458-16.236 16.237zm43.602-6.271l-4.721-4.722a5.28 5.28 0 00-7.458 0 5.28 5.28 0 000 7.458l4.722 4.721a10.41 10.41 0 01-10.15-2.692 10.603 10.603 0 01-2.478-11.003 1.757 1.757 0 00-.413-1.832l-16.22-16.221a1.758 1.758 0 00-1.833-.413A10.603 10.603 0 016.57 21.483a10.411 10.411 0 01-2.693-10.15L8.6 16.055a5.28 5.28 0 007.457 0 5.28 5.28 0 000-7.458l-4.721-4.722a10.41 10.41 0 0110.15 2.693 10.603 10.603 0 012.478 11.003 1.757 1.757 0 00.413 1.832l16.22 16.22a1.76 1.76 0 001.833.414 10.603 10.603 0 0111.003 2.478 10.412 10.412 0 012.692 10.15z" fill="#CFC393"/><path d="M22.855 37.496a1.758 1.758 0 00-2.486 0L9.63 48.239a1.758 1.758 0 002.485 2.486l10.74-10.742c.687-.686.687-1.8 0-2.486z" fill="#CFC393"/></svg>