<svg width="60" height="61" fill="none" xmlns="http://www.w3.org/2000/svg"><path d="M36.4.65c1.819 1.193 2.31 3.636 1.118 5.454-1.193 1.818-3.636 2.31-5.454 1.117-1.817-1.193-2.31-3.636-1.117-5.454C32.14-.05 34.583-.543 36.401.65zM21.37 2.734c1.817 1.193 2.31 3.635 1.117 5.453-1.193 1.818-3.636 2.31-5.454 1.117-1.818-1.192-2.31-3.635-1.117-5.453 1.193-1.818 3.636-2.31 5.453-1.117zm-11.165 9.827c1.818 1.193 2.31 3.636 1.118 5.454-1.193 1.818-3.636 2.31-5.454 1.117-1.818-1.193-2.31-3.636-1.117-5.453 1.193-1.818 3.635-2.31 5.453-1.118zM6.104 26.706c1.818 1.193 2.31 3.636 1.117 5.454-1.193 1.818-3.636 2.31-5.454 1.117C-.05 32.084-.542 29.641.65 27.823c1.193-1.817 3.636-2.31 5.454-1.117zm15.621 24.199c1.818 1.193 2.31 3.636 1.117 5.454-1.193 1.818-3.636 2.31-5.453 1.117-1.818-1.193-2.31-3.636-1.118-5.453 1.193-1.818 3.636-2.31 5.454-1.118zm14.867 2.16c1.818 1.193 2.31 3.636 1.117 5.454-1.193 1.817-3.635 2.31-5.453 1.117-1.818-1.193-2.31-3.636-1.117-5.454 1.192-1.818 3.635-2.31 5.453-1.117zm13.645-6.25c1.817 1.193 2.31 3.635 1.117 5.453-1.193 1.818-3.636 2.31-5.454 1.117-1.817-1.193-2.31-3.635-1.117-5.453 1.193-1.818 3.636-2.31 5.454-1.117zM58.1 19.396c1.818 1.193 2.31 3.636 1.117 5.453-1.193 1.818-3.636 2.31-5.453 1.118-1.818-1.193-2.31-3.636-1.118-5.454 1.193-1.818 3.636-2.31 5.454-1.117zm.133 14.941c1.818 1.193 2.31 3.636 1.117 5.453-1.193 1.818-3.636 2.31-5.454 1.118-1.818-1.193-2.31-3.636-1.117-5.454 1.193-1.818 3.636-2.31 5.454-1.117zM49.99 6.918c1.818 1.193 2.31 3.635 1.118 5.453-1.193 1.818-3.636 2.31-5.454 1.117-1.818-1.192-2.31-3.635-1.117-5.453 1.193-1.818 3.636-2.31 5.453-1.117zm-.396 30.751a3.362 3.362 0 01.966 4.658 3.362 3.362 0 01-4.658.965 3.362 3.362 0 01-.966-4.658 3.341 3.341 0 014.658-.947v-.018zm-8.219 7.555a3.362 3.362 0 01.966 4.658 3.362 3.362 0 01-4.659.966 3.341 3.341 0 01-.946-4.658 3.362 3.362 0 014.658-.966h-.02zm-11.172 1.875a3.362 3.362 0 01.966 4.658 3.362 3.362 0 01-4.659.966 3.34 3.34 0 01-.946-4.659c1.041-1.552 3.105-1.988 4.658-.965h-.019zm-10.41-4.355a3.362 3.362 0 01.966 4.658 3.362 3.362 0 01-4.659.966 3.34 3.34 0 01-.946-4.659 3.362 3.362 0 014.658-.965h-.02zm-6.48-9.354a3.341 3.341 0 01.946 4.659c-1.041 1.552-3.105 1.988-4.658.965a3.362 3.362 0 01-.965-4.658 3.362 3.362 0 014.658-.966h.019zm-.438-11.208a3.362 3.362 0 01.966 4.658 3.362 3.362 0 01-4.659.966 3.34 3.34 0 01-.946-4.659 3.362 3.362 0 014.658-.965h-.02zm5.727-9.657a3.362 3.362 0 01.965 4.658 3.362 3.362 0 01-4.658.966 3.34 3.34 0 01-.947-4.659 3.362 3.362 0 014.658-.965h-.018zm10.16-4.982a3.362 3.362 0 01.965 4.658 3.362 3.362 0 01-4.658.966 3.341 3.341 0 01-.947-4.658c1.042-1.553 3.106-1.988 4.659-.966h-.02zM40.078 8.85a3.362 3.362 0 01.966 4.658 3.362 3.362 0 01-4.658.965 3.34 3.34 0 01-.947-4.658c1.041-1.553 3.105-1.988 4.658-.966h-.019zm8.844 7.195a3.362 3.362 0 01.966 4.658 3.362 3.362 0 01-4.659.966 3.341 3.341 0 01-.947-4.659c1.042-1.552 3.106-1.988 4.659-.965h-.02zm3.476 10.717a3.362 3.362 0 01.966 4.658 3.362 3.362 0 01-4.658.966 3.34 3.34 0 01-.947-4.658c1.041-1.553 3.106-1.988 4.658-.966h-.019zM10.354 41.096c1.818 1.193 2.31 3.636 1.117 5.454-1.193 1.818-3.636 2.31-5.454 1.117-1.817-1.193-2.31-3.636-1.117-5.453 1.193-1.818 3.636-2.31 5.454-1.118z" fill="#CFC393"/></svg>