<svg width="60" height="60" fill="none" xmlns="http://www.w3.org/2000/svg"><path d="M53.303 15.45a8.77 8.77 0 003.064-6.66c0-4.847-3.943-8.79-8.789-8.79S38.79 3.943 38.79 8.79a8.77 8.77 0 003.082 6.675 12.29 12.29 0 00-2.466 1.704 15.818 15.818 0 00-3.436-1.936 8.765 8.765 0 002.82-6.444C38.79 3.943 34.846 0 30 0s-8.79 3.943-8.79 8.79a8.765 8.765 0 002.821 6.443 15.824 15.824 0 00-3.436 1.937 12.289 12.289 0 00-2.466-1.705A8.77 8.77 0 0021.21 8.79c0-4.847-3.942-8.79-8.79-8.79-4.843 0-8.786 3.943-8.786 8.79a8.77 8.77 0 003.064 6.66C2.721 17.504 0 21.626 0 26.367v7.031c0 .76.489 1.435 1.211 1.671l7.227 2.363c.304.859.624 1.642.965 2.366l-3.336 6.704a1.758 1.758 0 00.33 2.026l4.957 4.957c.535.534 1.35.668 2.027.331l6.704-3.336c.722.34 1.504.66 2.36.963l2.366 7.339c.234.726.91 1.218 1.673 1.218h7.032c.763 0 1.439-.492 1.673-1.218l2.365-7.339a25.353 25.353 0 002.361-.963l6.704 3.336a1.758 1.758 0 002.026-.33l4.957-4.958c.535-.534.668-1.35.331-2.026l-3.336-6.704a25.52 25.52 0 00.965-2.366l7.227-2.363A1.758 1.758 0 0060 33.4v-7.032c0-4.74-2.721-8.863-6.697-10.917zM47.578 3.516a5.28 5.28 0 015.274 5.273 5.28 5.28 0 01-5.274 5.274 5.28 5.28 0 01-5.273-5.274 5.28 5.28 0 015.273-5.273zM30 3.516a5.28 5.28 0 015.273 5.273A5.28 5.28 0 0130 14.063a5.28 5.28 0 01-5.273-5.274A5.28 5.28 0 0130 3.516zm0 14.062c6.188 0 11.324 4.592 12.18 10.547H17.82c.856-5.955 5.992-10.547 12.18-10.547zm0 21.094c4.244 0 7.795-3.036 8.612-7.043h3.567C41.323 37.584 36.188 42.187 30 42.187c-6.188 0-11.323-4.591-12.179-10.546h3.567c.816 4.007 4.368 7.03 8.612 7.03zm-4.971-7.043h9.942A5.292 5.292 0 0130 35.156a5.292 5.292 0 01-4.971-3.527zM12.422 3.516a5.28 5.28 0 015.273 5.273 5.28 5.28 0 01-5.273 5.274 5.28 5.28 0 01-5.274-5.274 5.28 5.28 0 015.274-5.273zM3.516 26.367c0-4.846 3.995-8.789 8.906-8.789 2.056 0 4.02.718 5.581 2.003a15.757 15.757 0 00-3.725 8.544H3.516v-1.758zm52.968 5.757l-6.85 2.24a1.758 1.758 0 00-1.127 1.129c-.44 1.36-.908 2.5-1.428 3.482a1.759 1.759 0 00-.02 1.605l3.163 6.356-3.169 3.17-6.356-3.164a1.759 1.759 0 00-1.605.02c-.983.52-2.121.987-3.482 1.428a1.757 1.757 0 00-1.13 1.133l-2.245 6.961h-4.47l-2.244-6.96a1.758 1.758 0 00-1.131-1.134c-1.36-.44-2.5-.908-3.482-1.428a1.758 1.758 0 00-1.605-.02l-6.356 3.163-3.17-3.169 3.164-6.356a1.758 1.758 0 00-.02-1.605c-.52-.983-.987-2.121-1.428-3.482a1.758 1.758 0 00-1.126-1.129l-6.851-2.24v-.483h10.76c.888 7.984 7.675 14.062 15.724 14.062 8.069 0 14.838-6.097 15.723-14.062h10.761v.483zm0-3.999H45.722a15.757 15.757 0 00-3.726-8.544 8.773 8.773 0 015.582-2.003c4.911 0 8.906 3.943 8.906 8.79v1.757z" fill="#CFC393"/></svg>