<svg width="60" height="61" fill="none" xmlns="http://www.w3.org/2000/svg"><path d="M58.454 18.883a5.28 5.28 0 00-7.459 0l-5.289 5.294V10.246a5.239 5.239 0 00-1.544-3.73l-4.972-4.97A5.24 5.24 0 0035.46 0H5.274A5.28 5.28 0 000 5.274V54.73a5.28 5.28 0 005.274 5.274h35.159a5.28 5.28 0 005.273-5.274V39.1l12.748-12.758a5.27 5.27 0 000-7.459zM35.16 3.516c.332 0 .972-.058 1.544.515l4.973 4.972c.557.558.515 1.17.515 1.545H35.16V3.516zm7.03 51.214a1.76 1.76 0 01-1.759 1.758H5.274a1.76 1.76 0 01-1.758-1.758V5.274c0-.97.788-1.758 1.758-1.758h26.369v8.79c0 .97.787 1.758 1.758 1.758h8.79v13.632l-5.187 5.191-2.485 2.485a1.76 1.76 0 00-.425.687l-2.486 7.459a1.757 1.757 0 002.224 2.223l7.458-2.486c.259-.086.494-.232.687-.425l.214-.213V54.73zm-3.943-18.115l2.486 2.486-.95.95-3.729 1.243 1.243-3.73.95-.949zm4.972 0l-2.486-2.486 8.45-8.458 2.486 2.486-8.45 8.457zm12.747-12.759l-1.812 1.814-2.486-2.486 1.813-1.815a1.757 1.757 0 112.485 2.487z" fill="#CFC393"/><path d="M33.4 17.58H8.79a1.758 1.758 0 000 3.515H33.4a1.758 1.758 0 000-3.516zm-7.031 7.031H8.789a1.758 1.758 0 000 3.516h17.58a1.758 1.758 0 000-3.516zm0 7.032H8.789a1.758 1.758 0 000 3.516h17.58a1.758 1.758 0 000-3.516zm0 7.032H8.789a1.758 1.758 0 000 3.516h17.58a1.758 1.758 0 000-3.516zm7.034 10.781H22.856a1.758 1.758 0 000 3.516h10.547a1.758 1.758 0 000-3.516z" fill="#CFC393"/></svg>