<svg width="60" height="60" fill="none" xmlns="http://www.w3.org/2000/svg"><path d="M39.945 32.244c-.48 0-.96-.183-1.326-.55a12.103 12.103 0 00-8.617-3.569 12.104 12.104 0 00-8.617 3.57 1.875 1.875 0 11-2.653-2.651 15.83 15.83 0 0111.27-4.669 15.83 15.83 0 0111.27 4.669 1.875 1.875 0 01-1.327 3.2z" fill="#CFC393"/><path d="M35.307 36.884c-.48 0-.96-.184-1.326-.55a5.588 5.588 0 00-3.978-1.647 5.589 5.589 0 00-3.978 1.648 1.875 1.875 0 01-2.652-2.652 9.314 9.314 0 016.63-2.745c2.505 0 4.86.975 6.63 2.745a1.875 1.875 0 01-1.326 3.2zM30 45a2.816 2.816 0 01-2.813-2.813A2.816 2.816 0 0130 39.376a2.816 2.816 0 012.813 2.813A2.816 2.816 0 0130 45z" fill="#CFC393"/><path d="M59.234 20.988L31.109.363a1.875 1.875 0 00-2.218 0L.766 20.988a1.875 1.875 0 102.218 3.024l.766-.562v31.16A5.397 5.397 0 009.14 60h41.72a5.397 5.397 0 005.39-5.39V23.45l.766.562a1.872 1.872 0 002.62-.403 1.875 1.875 0 00-.402-2.62zM52.5 54.61c0 .905-.736 1.641-1.64 1.641H9.14c-.904 0-1.64-.736-1.64-1.64V20.7L30 4.2l22.5 16.5v33.91z" fill="#CFC393"/></svg>