<svg width="73" height="70" fill="none" xmlns="http://www.w3.org/2000/svg"><path d="M69.05 62.068v-.03H15.83a7.93 7.93 0 01-7.93-7.9V3.95C7.9 1.77 6.13 0 3.95 0S0 1.77 0 3.95v50.188c0 8.742 7.089 15.83 15.831 15.83H69.05c2.18 0 3.95-1.77 3.95-3.95s-1.77-3.95-3.95-3.95z" fill="#CFC393"/><path d="M64.319 16.689a3.958 3.958 0 00-5.543.796L49.59 30.652l-12.983-9.768a3.95 3.95 0 00-5.543.796L19.765 37.91a3.953 3.953 0 00.757 5.536 3.932 3.932 0 002.306.803v.092a3.959 3.959 0 003.062-1.593l9.186-13.167 12.983 9.768a3.95 3.95 0 005.53-.78.038.038 0 01.013-.016l11.513-16.32a3.958 3.958 0 00-.796-5.543z" fill="#CFC393"/></svg>