<svg width="72" height="72" fill="none" xmlns="http://www.w3.org/2000/svg"><path d="M6.47 62.804v-48.13a2.738 2.738 0 012.734-2.735h4.922v5.469h27.347v-5.47h4.922a2.738 2.738 0 012.735 2.735v18.05h5.47v-18.05c0-4.523-3.68-8.204-8.205-8.204h-4.922V1H14.126v5.47H9.204C4.68 6.47 1 10.15 1 14.672v48.13c0 4.524 3.68 8.205 8.204 8.205h30.927v-5.47H9.204a2.738 2.738 0 01-2.735-2.734zM36.003 6.469v5.47H19.596v-5.47h16.408z" fill="#CFC393" stroke="#CFC393"/><path d="M71 67.059l-7.734-7.655c3.51-5.306 2.93-12.539-1.74-17.208-5.342-5.343-13.991-5.344-19.335 0-5.343 5.343-5.344 13.992 0 19.336 4.72 4.719 11.955 5.23 17.21 1.74l7.653 7.733L71 67.059zm-24.942-9.395a8.199 8.199 0 010-11.6 8.199 8.199 0 0111.602 0c3.198 3.198 3.198 8.402 0 11.6a8.2 8.2 0 01-11.602 0zM19.613 31.589l-3.867 3.867 9.336 9.336 14.805-14.805-3.867-3.867-10.938 10.938-5.469-5.469z" fill="#CFC393" stroke="#CFC393"/></svg>