<svg width="20" height="28" fill="none" xmlns="http://www.w3.org/2000/svg"><path d="M16.97 11.677V7.212C16.97 3.235 13.734 0 9.758 0 5.78 0 2.545 3.235 2.545 7.212v4.465A9.72 9.72 0 000 18.242C0 23.622 4.377 28 9.758 28c5.38 0 9.757-4.377 9.757-9.758a9.72 9.72 0 00-2.545-6.565zM9.758 2.545a4.672 4.672 0 014.666 4.667v2.463a9.698 9.698 0 00-4.666-1.19c-1.69 0-3.28.432-4.667 1.19V7.212a4.672 4.672 0 014.667-4.667zm0 22.91c-3.977 0-7.213-3.236-7.213-7.213 0-3.976 3.236-7.212 7.213-7.212 3.976 0 7.212 3.236 7.212 7.212 0 3.977-3.236 7.212-7.212 7.212z" fill="#CFC393"/><path d="M11.563 15.54l-2.706 2.706-.903-.903a1.273 1.273 0 00-1.8 1.8l1.803 1.802a1.269 1.269 0 001.8 0l3.606-3.606a1.273 1.273 0 10-1.8-1.8z" fill="#CFC393"/></svg>