<svg width="55" height="55" fill="none" xmlns="http://www.w3.org/2000/svg"><g clip-path="url(#clip0_614_32024)" fill="#CFC393"><path d="M14.137 6.918a2.944 2.944 0 010-4.167A1.611 1.611 0 1011.86.473a6.175 6.175 0 000 8.724 2.945 2.945 0 010 4.166 1.611 1.611 0 102.278 2.279 6.175 6.175 0 000-8.724zm9.668 0a2.944 2.944 0 010-4.167A1.611 1.611 0 0021.526.473a6.176 6.176 0 000 8.724 2.944 2.944 0 010 4.166 1.611 1.611 0 102.28 2.279 6.176 6.176 0 000-8.724zm9.668 0a2.945 2.945 0 010-4.167A1.611 1.611 0 1031.195.473a6.175 6.175 0 000 8.724 2.944 2.944 0 010 4.166 1.611 1.611 0 102.278 2.279 6.175 6.175 0 000-8.724zm7.025 35.084C48.495 42.002 55 35.495 55 27.5a4.84 4.84 0 00-4.834-4.834h-4.865a43.2 43.2 0 00.031-1.611 1.61 1.61 0 00-1.611-1.611H1.613c-.89 0-1.611.72-1.611 1.61 0 8.809 2.826 18.048 8.717 24.277H1.613a1.612 1.612 0 00-1.441 2.332 13.26 13.26 0 004.895 5.354 13.267 13.267 0 006.977 1.982H33.29c5.025 0 9.623-2.837 11.872-7.336a1.612 1.612 0 00-1.441-2.332h-7.106a27.018 27.018 0 002.673-3.33h1.21zm4.554-16.113h5.114c.889 0 1.612.723 1.612 1.611 0 5.977-4.673 10.881-10.557 11.255 2.014-3.898 3.3-8.298 3.831-12.866zm-4.378 22.644a10.013 10.013 0 01-7.384 3.244H12.044a10.013 10.013 0 01-7.384-3.244h36.014zm-8.86-3.202H13.52C7.586 40.843 3.66 32.11 3.258 22.645l38.817.021c-.356 8.362-3.69 17.694-10.26 22.665z"/></g><defs><clipPath id="clip0_614_32024"><path fill="#fff" d="M0 0h55v55H0z"/></clipPath></defs></svg>