<svg width="167" height="26" fill="none" xmlns="http://www.w3.org/2000/svg"><path d="M163.891 14.696a3.545 3.545 0 01-3.538 3.543h-20.44a3.543 3.543 0 01-3.538-3.543V10.34a3.541 3.541 0 013.538-3.544h20.416a3.545 3.545 0 013.538 3.544l.024 4.356zm-3.538-11.02H139.82a6.654 6.654 0 00-6.531 6.664v4.338a6.653 6.653 0 006.531 6.682h20.533A6.665 6.665 0 00167 14.707V10.34a6.662 6.662 0 00-6.647-6.653M77.874 14.7h-3.108v6.774h3.108v-6.775zm24.633-11.122h-3.109v6.775h3.109V3.578zm-5.19 7.399H79.95A2.083 2.083 0 0177.869 8.9V3.582h-3.103V8.9a5.22 5.22 0 005.185 5.186h17.366a2.076 2.076 0 012.076 2.076v5.319h3.109v-5.336a5.217 5.217 0 00-5.185-5.186m11.409-7.381h-3.109v6.775h3.109V3.578zm15.392 8.952a14.358 14.358 0 004.443-3.48l4.727-5.48h-4.118l-2.964 3.45a11.369 11.369 0 01-8.614 3.945h-6.791a5.222 5.222 0 00-5.192 5.185v5.319h3.109v-5.325a2.072 2.072 0 01.61-1.47 2.092 2.092 0 011.473-.606h6.791a11.367 11.367 0 018.614 3.944l2.865 3.317h4.106l-4.64-5.347a14.486 14.486 0 00-4.443-3.48M69.154 14.7h-.69a4.333 4.333 0 01-4.252 3.543H45.327a4.333 4.333 0 01-4.252-3.544H37.95a1.376 1.376 0 000 .203 7.447 7.447 0 007.378 6.461h18.897a7.447 7.447 0 007.366-6.45 1.376 1.376 0 000-.202h-2.436v-.012zm2.432-4.547A7.447 7.447 0 0064.22 3.71H45.329a7.448 7.448 0 00-7.372 6.444 1.376 1.376 0 000 .203h3.126a4.339 4.339 0 014.258-3.544H64.22a4.339 4.339 0 014.21 3.341c.029.136.043.274.041.412a.406.406 0 01-.406.406H51.71v3.109h16.82a3.005 3.005 0 002.14-.847 2.9 2.9 0 00.772-1.357 5.222 5.222 0 00.186-1.52 1.376 1.376 0 000-.203M8.018.956a1.636 1.636 0 110 3.271 1.636 1.636 0 010-3.27zM3.282 5.123a1.641 1.641 0 110 3.283 1.641 1.641 0 010-3.283zm-1.646 5.978a1.642 1.642 0 11.01 3.284 1.642 1.642 0 01-.01-3.284zm1.834 5.853a1.642 1.642 0 110 3.283 1.642 1.642 0 010-3.283zm10.992 4.826a1.641 1.641 0 110 3.282 1.641 1.641 0 010-3.282zm5.64-2.653a1.641 1.641 0 110 3.283 1.641 1.641 0 010-3.283zm3.313-5.306a1.641 1.641 0 110 3.282 1.641 1.641 0 010-3.282zM19.878 2.485a1.642 1.642 0 11.011 3.283 1.642 1.642 0 01-.011-3.283zm3.451 5.17a1.641 1.641 0 110 3.283 1.641 1.641 0 010-3.283zM14.196 0a1.642 1.642 0 110 3.283 1.642 1.642 0 010-3.283zm6.911 10.791a1.403 1.403 0 110 2.807 1.403 1.403 0 010-2.807zm-1.147 4.514a1.402 1.402 0 011 2.393 1.403 1.403 0 11-1-2.393zm-3.432 3.21a1.403 1.403 0 110 2.806 1.403 1.403 0 010-2.806zm-4.632.877a1.403 1.403 0 110 2.806 1.403 1.403 0 010-2.806zm-4.383-1.771a1.403 1.403 0 110 2.807 1.403 1.403 0 010-2.807zm-2.711-3.8a1.403 1.403 0 110 2.807 1.403 1.403 0 010-2.807zM4.575 9.18a1.403 1.403 0 110 2.807 1.403 1.403 0 010-2.807zm2.377-4.057a1.403 1.403 0 11.012 2.807 1.403 1.403 0 01-.012-2.807zm4.235-2.172a1.403 1.403 0 11.011 2.807 1.403 1.403 0 01-.011-2.807zm4.711.483a1.403 1.403 0 11.011 2.806 1.403 1.403 0 01-.011-2.806zm3.679 2.916a1.403 1.403 0 11-1.397 1.398 1.398 1.398 0 011.397-1.397zm-6.113-.845a1.16 1.16 0 110 2.32 1.16 1.16 0 010-2.32zm3.102 1.32a1.16 1.16 0 110 2.318 1.16 1.16 0 010-2.318zm1.836 2.765a1.16 1.16 0 110 2.32 1.16 1.16 0 010-2.32zm.094 3.333a1.16 1.16 0 110 2.32 1.16 1.16 0 010-2.32zm-1.805 2.829a1.16 1.16 0 110 2.32 1.16 1.16 0 010-2.32zm-3.016 1.458a1.16 1.16 0 110 2.32 1.16 1.16 0 010-2.32zm-3.367-.401a1.16 1.16 0 110 2.318 1.16 1.16 0 010-2.318zm-2.601-2.16a1.16 1.16 0 110 2.319 1.16 1.16 0 010-2.32zm-.992-3.147a1.16 1.16 0 110 2.32 1.16 1.16 0 010-2.32zm.914-3.235a1.16 1.16 0 110 2.32 1.16 1.16 0 010-2.32zm2.5-2.235a1.16 1.16 0 110 2.32 1.16 1.16 0 010-2.32zm2.757 2.311a.87.87 0 110 1.74.87.87 0 010-1.74zm.134 6.357a.87.87 0 11.012 1.739.87.87 0 01-.012-1.74zm2.73-5.25a.87.87 0 11-1.135 1.32.87.87 0 011.135-1.32zm-4.492 4.805a.87.87 0 11-1.23 1.231.87.87 0 011.23-1.23zm-1.094-2.341a.87.87 0 11-1.23 1.231.87.87 0 011.23-1.231zm.984-2.487a.865.865 0 11-1.225 1.221.865.865 0 011.225-1.22zm5.31 2.206a.87.87 0 11-1.223 1.237.87.87 0 011.223-1.237zm-.672 2.31a.87.87 0 11-1.223 1.236.87.87 0 011.223-1.236zm-7.541 7.043a1.641 1.641 0 11.012 3.283 1.641 1.641 0 01-.012-3.282z" fill="#fff"/></svg>