<svg width="65" height="65" fill="none" xmlns="http://www.w3.org/2000/svg"><path d="M16.903 59.292a3.736 3.736 0 00-3.703-3.245H3.703A3.736 3.736 0 000 59.292v.11h1.59c.196-1.024 1.09-1.787 2.135-1.787h9.498a2.15 2.15 0 012.112 1.677c.022.066.022.131.022.218a.195.195 0 01-.196.196H6.927v1.569h8.43c.392 0 .784-.153 1.067-.436a1.53 1.53 0 00.392-.675c.11-.283.087-.763.087-.763v-.109zm-1.22 2.288h-.348c-.196 1.023-1.09 1.786-2.135 1.786H3.703c-1.045 0-1.96-.763-2.135-1.786H0v.108a3.736 3.736 0 003.703 3.246H13.2a3.736 3.736 0 003.703-3.245v-.11h-1.219zm27.621-1.09a6.862 6.862 0 002.222-1.742l2.396-2.767h-2.069l-1.482 1.743a5.696 5.696 0 01-4.334 1.982h-3.42a2.622 2.622 0 00-2.614 2.614V65h1.568v-2.68c0-.566.48-1.045 1.046-1.045h3.42a5.73 5.73 0 014.334 1.982l1.438 1.677h2.07l-2.353-2.7a6.638 6.638 0 00-2.222-1.744zm-7.733-4.509h-1.568v3.399h1.568v-3.4zm-5.729 3.725h-8.734a1.06 1.06 0 01-1.046-1.045v-2.68h-1.568v2.68a2.622 2.622 0 002.614 2.614h8.734a1.06 1.06 0 011.046 1.045V65h1.568v-2.68c-.021-1.437-1.176-2.614-2.614-2.614zm1.046-.305h1.568v-3.42h-1.568v3.42zm-12.394 5.577h1.568V61.58h-1.568v3.398zM63.3 61.58c0 .98-.806 1.786-1.786 1.786h-10.26c-.98 0-1.786-.806-1.786-1.786V59.4c0-.98.806-1.786 1.786-1.786h10.26c.98 0 1.786.806 1.786 1.786v2.179zm-1.786-5.533H51.189c-1.807.022-3.289 1.525-3.289 3.333v2.178c0 1.83 1.46 3.31 3.29 3.333h10.325a3.333 3.333 0 003.332-3.333V59.38a3.347 3.347 0 00-3.332-3.333z" fill="#122A4B"/><path fill-rule="evenodd" clip-rule="evenodd" d="M24.638 1.525a2.63 2.63 0 012.635 2.635 2.63 2.63 0 01-2.635 2.636 2.63 2.63 0 01-2.636-2.636 2.63 2.63 0 012.636-2.635zm-7.624 6.709a2.63 2.63 0 012.635 2.636 2.63 2.63 0 01-2.635 2.635 2.645 2.645 0 01-2.636-2.635 2.63 2.63 0 012.636-2.636zm-2.636 9.628a2.63 2.63 0 012.636 2.636 2.63 2.63 0 01-2.636 2.635 2.63 2.63 0 01-2.636-2.635 2.63 2.63 0 012.636-2.636zm2.94 9.41a2.63 2.63 0 012.636 2.636 2.63 2.63 0 01-2.635 2.635 2.63 2.63 0 01-2.636-2.635 2.645 2.645 0 012.636-2.636zm17.688 7.755a2.63 2.63 0 012.636 2.635 2.631 2.631 0 01-2.636 2.636 2.63 2.63 0 01-2.636-2.636 2.645 2.645 0 012.636-2.635zm9.084-4.248a2.63 2.63 0 012.635 2.636 2.63 2.63 0 01-2.635 2.635 2.63 2.63 0 01-2.636-2.635c-.022-1.46 1.176-2.636 2.636-2.636zm5.314-8.539a2.63 2.63 0 012.636 2.636 2.63 2.63 0 01-2.636 2.636 2.63 2.63 0 01-2.635-2.636 2.63 2.63 0 012.636-2.636zM43.72 3.986a2.63 2.63 0 012.636 2.636 2.63 2.63 0 01-2.636 2.636 2.63 2.63 0 01-2.636-2.636 2.645 2.645 0 012.636-2.636zm5.555 8.321a2.631 2.631 0 012.636 2.636 2.63 2.63 0 01-2.636 2.636 2.63 2.63 0 01-2.636-2.636 2.645 2.645 0 012.636-2.636zM34.57 0a2.63 2.63 0 012.635 2.636A2.63 2.63 0 0134.57 5.27a2.63 2.63 0 01-2.635-2.635A2.63 2.63 0 0134.57 0zM45.7 17.36a2.264 2.264 0 012.266 2.266 2.264 2.264 0 01-2.265 2.266 2.264 2.264 0 01-2.266-2.266 2.264 2.264 0 012.266-2.265zm-1.851 7.276a2.264 2.264 0 012.265 2.266 2.264 2.264 0 01-2.265 2.265 2.264 2.264 0 01-2.266-2.265 2.264 2.264 0 012.266-2.266zm-5.511 5.141a2.264 2.264 0 012.265 2.265 2.264 2.264 0 01-2.265 2.266 2.264 2.264 0 01-2.265-2.266 2.264 2.264 0 012.265-2.265zm-7.472 1.416a2.264 2.264 0 012.266 2.265 2.264 2.264 0 01-2.266 2.266 2.264 2.264 0 01-2.265-2.266c.022-1.241 1.024-2.265 2.265-2.265zm-7.035-2.854a2.264 2.264 0 012.265 2.266 2.264 2.264 0 01-2.265 2.265 2.264 2.264 0 01-2.266-2.265 2.278 2.278 0 012.266-2.266zm-4.379-6.099a2.264 2.264 0 012.266 2.266 2.264 2.264 0 01-2.266 2.265 2.264 2.264 0 01-2.265-2.265 2.264 2.264 0 012.265-2.266zm-.37-7.515a2.264 2.264 0 012.265 2.266 2.25 2.25 0 01-2.265 2.265 2.264 2.264 0 01-2.265-2.265 2.264 2.264 0 012.265-2.266zm3.834-6.535a2.264 2.264 0 012.265 2.266 2.264 2.264 0 01-2.265 2.265 2.264 2.264 0 01-2.266-2.265 2.264 2.264 0 012.266-2.266zm6.818-3.441A2.264 2.264 0 0132 7.014a2.264 2.264 0 01-2.265 2.265 2.25 2.25 0 01-2.266-2.265c.022-1.263 1.024-2.265 2.266-2.265zm7.58.784a2.264 2.264 0 012.266 2.265 2.25 2.25 0 01-2.266 2.266 2.264 2.264 0 01-2.265-2.266 2.264 2.264 0 012.265-2.265zm5.925 4.683a2.264 2.264 0 012.265 2.266 2.264 2.264 0 01-2.265 2.265 2.264 2.264 0 01-2.265-2.265 2.264 2.264 0 012.265-2.266zm-9.802-1.35a1.85 1.85 0 011.851 1.851 1.85 1.85 0 01-1.851 1.852 1.85 1.85 0 01-1.852-1.852 1.85 1.85 0 011.852-1.851zm4.944 2.113a1.85 1.85 0 011.852 1.851 1.85 1.85 0 01-1.852 1.852 1.85 1.85 0 01-1.851-1.852 1.85 1.85 0 011.852-1.851zm2.963 4.465a1.85 1.85 0 011.852 1.851 1.85 1.85 0 01-1.852 1.852 1.85 1.85 0 01-1.852-1.851 1.85 1.85 0 011.852-1.852zm.152 5.337a1.85 1.85 0 011.852 1.851 1.85 1.85 0 01-1.852 1.852 1.85 1.85 0 01-1.851-1.852 1.85 1.85 0 011.851-1.851zM38.6 25.355a1.85 1.85 0 011.852 1.852 1.85 1.85 0 01-1.852 1.851 1.85 1.85 0 01-1.851-1.851c-.022-1.024.828-1.852 1.851-1.852zm-4.857 2.33a1.85 1.85 0 011.851 1.852 1.85 1.85 0 01-1.851 1.852 1.85 1.85 0 01-1.852-1.852 1.85 1.85 0 011.852-1.851zm-5.424-.63a1.85 1.85 0 011.851 1.85 1.85 1.85 0 01-1.851 1.852 1.85 1.85 0 01-1.852-1.851 1.85 1.85 0 011.852-1.852zm-4.182-3.486a1.85 1.85 0 011.851 1.852 1.85 1.85 0 01-1.851 1.851 1.85 1.85 0 01-1.852-1.851 1.85 1.85 0 011.852-1.852zm-1.59-5.054a1.85 1.85 0 011.851 1.852 1.85 1.85 0 01-1.852 1.851 1.85 1.85 0 01-1.851-1.851 1.85 1.85 0 011.851-1.852zm1.48-5.228a1.85 1.85 0 011.852 1.852 1.85 1.85 0 01-1.851 1.852 1.85 1.85 0 01-1.852-1.852c-.022-1.002.806-1.851 1.852-1.851zm4.009-3.594a1.85 1.85 0 011.851 1.852 1.85 1.85 0 01-1.851 1.851 1.85 1.85 0 01-1.852-1.851c0-1.002.828-1.852 1.852-1.852zm4.465 3.725c.763 0 1.394.632 1.394 1.394 0 .763-.632 1.394-1.394 1.394a1.404 1.404 0 01-1.394-1.394c0-.762.632-1.394 1.394-1.394zm.196 10.238c.763 0 1.394.632 1.394 1.394 0 .762-.631 1.394-1.394 1.394a1.404 1.404 0 01-1.394-1.394c-.022-.784.61-1.394 1.394-1.394zm4.378-8.452a1.407 1.407 0 010 1.983 1.407 1.407 0 01-1.982 0 1.407 1.407 0 010-1.983 1.407 1.407 0 011.982 0zm-7.231 7.733a1.407 1.407 0 010 1.982 1.407 1.407 0 01-1.983 0 1.407 1.407 0 010-1.982 1.407 1.407 0 011.983 0zM28.1 19.17a1.407 1.407 0 010 1.982 1.407 1.407 0 01-1.982 0 1.407 1.407 0 010-1.982 1.407 1.407 0 011.982 0zm1.547-4.008a1.407 1.407 0 010 1.982 1.407 1.407 0 01-1.983 0 1.407 1.407 0 010-1.982c.545-.545 1.416-.545 1.983 0zm8.582 3.55a1.407 1.407 0 010 1.983 1.407 1.407 0 01-1.982 0 1.407 1.407 0 010-1.983 1.407 1.407 0 011.982 0zm-1.09 3.725a1.407 1.407 0 010 1.982 1.407 1.407 0 01-1.981 0 1.407 1.407 0 010-1.982 1.407 1.407 0 011.982 0zM24.987 33.763a2.63 2.63 0 012.636 2.636 2.63 2.63 0 01-2.636 2.636 2.63 2.63 0 01-2.636-2.636 2.63 2.63 0 012.636-2.636z" fill="#122A4B"/></svg>