<svg width="24" height="28" fill="none" xmlns="http://www.w3.org/2000/svg"><path d="M17.698 12.029c1.318-1.372 3.528-4.23 3.528-7.964V2.71h2.258V0H0v2.71h2.258v1.354c0 3.735 2.21 6.593 3.528 7.965.743.773 1.543 1.44 2.343 1.97-.8.532-1.6 1.2-2.343 1.972-1.318 1.372-3.528 4.23-3.528 7.964v1.355H0V28h23.484v-2.71h-2.258v-1.354c0-3.735-2.21-6.593-3.528-7.965a14.1 14.1 0 00-2.343-1.97c.8-.532 1.6-1.2 2.343-1.972zm-1.954 5.82c1.035 1.077 2.772 3.301 2.772 6.087v1.354H4.968v-1.354c0-2.786 1.737-5.01 2.772-6.087 1.653-1.72 3.335-2.494 4.002-2.494.667 0 2.35.773 4.002 2.494zm-4.002-5.204c-.667 0-2.35-.774-4.002-2.494C6.705 9.074 4.968 6.85 4.968 4.064V2.71h13.548v1.354c0 2.786-1.737 5.01-2.772 6.087-1.653 1.72-3.335 2.494-4.002 2.494z" fill="#CFC393"/></svg>