<svg width="28" height="26" fill="none" xmlns="http://www.w3.org/2000/svg"><path d="M27.405 8.628a2.673 2.673 0 00-2.107-1.026h-4.843l1.172-4.088C22.133 1.749 20.827 0 19.028 0c-.79 0-1.538.349-2.053.957l-5.468 6.464a.498.498 0 01-.38.18H8.612v-.546c0-.604-.49-1.094-1.094-1.094H1.094C.49 5.961 0 6.451 0 7.055v17.008c0 .604.49 1.093 1.094 1.093h6.423c.604 0 1.094-.49 1.094-1.093v-.547h14.204a2.701 2.701 0 002.625-2.097l2.483-10.433a2.754 2.754 0 00-.518-2.358zM6.423 22.968H2.187V8.149h4.236v14.82zM25.795 10.48l-2.483 10.432a.522.522 0 01-.497.416H8.61V9.79h2.517c.788 0 1.535-.348 2.049-.955l5.468-6.464c.37-.437 1.042-.03.879.541l-1.269 4.427c-.352 1.23.561 2.451 1.823 2.451h5.22c.206 0 .333.122.39.195.11.139.15.32.107.496z" fill="#CFC393"/></svg>