<svg width="27" height="28" fill="none" xmlns="http://www.w3.org/2000/svg"><path d="M25.495 13.865c-1.056-1.573-2.829-1.386-2.883-1.398-.233 0-.463.026-.686.076l1.224-4.736a5.232 5.232 0 00-2.655-5.95C18.118.624 15.602 0 13.015 0c-2.584 0-5.1.625-7.476 1.856a5.232 5.232 0 00-2.655 5.951l1.223 4.736c-.459-.103-.771-.07-.943-.076-2.246 0-3.775 2.276-2.927 4.35a13.718 13.718 0 005.518 6.506L3.59 26.257a1.094 1.094 0 101.76 1.298l2.38-3.224a13.754 13.754 0 005.261 1.042h.051c1.822 0 3.603-.356 5.262-1.042l2.38 3.224a1.094 1.094 0 001.76-1.298l-2.165-2.934a13.717 13.717 0 005.517-6.505 3.15 3.15 0 00-.301-2.953zM6.545 3.8c2.063-1.07 4.24-1.611 6.473-1.611 2.23 0 4.407.542 6.47 1.61a3.026 3.026 0 011.544 3.462l-1.9 7.35c-1.49 1.107-3.74 1.914-6.115 1.914-2.378 0-4.628-.81-6.116-1.913L5 7.26a3.026 3.026 0 011.544-3.461zm17.226 12.19a11.585 11.585 0 01-10.729 7.195h-.05a11.585 11.585 0 01-10.73-7.195.97.97 0 01.902-1.336c.12.02.642-.11 1.042.395 1.395 1.764 4.747 3.663 8.81 3.663 4.064 0 7.416-1.899 8.811-3.663.199-.25.485-.395.785-.395.115.02.7-.115 1.067.43a.953.953 0 01.092.906z" fill="#CFC393"/></svg>