<svg width="71" height="71" fill="none" xmlns="http://www.w3.org/2000/svg"><path d="M.008 35.503V.303C.008.07.008 0 .304 0h70.384c.273 0 .312.062.312.32v70.36c0 .249-.039.319-.312.319H.335c-.288 0-.335-.07-.335-.335v-35.16h.008z" fill="#fff"/><path fill-rule="evenodd" clip-rule="evenodd" d="M.008 31.265h9.379a.935.935 0 01.926.545 7541.48 7541.48 0 0012.892 20.828l.39.631c.178-.216.162-.437.147-.631-.004-.052-.008-.1-.008-.148V32.145c0-.733.21-.865.888-.857 2.052.026 4.104.017 6.153.009 1.024-.005 2.047-.01 3.07-.01.483 0 .623.11.623.608V71h5.703a2.347 2.347 0 01-.002-.126V32.005c0-.67.203-.78.78-.78h8.95c.56 0 .685.164.677.694v19.847l.14.062.055.016 4.4-5.577.63-.799c.686-.87 1.37-1.737 2.05-2.613a.833.833 0 01.724-.42h11.887a.855.855 0 01.194.07c-.073.08-.14.159-.206.236-.081.095-.16.188-.245.278l-1.376 1.474c-2.353 2.525-4.71 5.051-7.076 7.561a.887.887 0 00-.179 1.238 9033.238 9033.238 0 019.388 17.62c.03-.05.038-.125.038-.233V.32c0-.258-.039-.32-.311-.32H.303C.008 0 .008.07.008.304v30.96zm59.488 39.734a.899.899 0 01-.04-.11c-1.47-3.24-2.966-6.472-4.491-9.77l-.565-1.221c-.264.281-.516.565-.765.845-.544.612-1.074 1.21-1.688 1.733a3.895 3.895 0 00-1.387 3.482c.08.998.063 2.004.046 3.01-.01.652-.022 1.303-.007 1.951l-.001.08h8.898zm-36.119 0c-4.256-6.881-8.52-13.762-12.79-20.643-.085-.14-.173-.276-.262-.413l-.105-.163h-.117v21.006c0 .078-.002.148-.008.212h13.282z" fill="#D8291A"/></svg>