<svg width="71" height="62" fill="none" xmlns="http://www.w3.org/2000/svg"><path d="M69.176 21.08C68.6 15.235 34.345 7.412 26.028 10.87c-6.422 2.717-12.68 13.669-16.715 24.456 4.034 8.07 8.893 15.645 13.01 20.504 19.186-8.317 47.595-28.162 46.853-34.75z" fill="#232E56"/><path d="M9.3 35.327C5.265 46.278 3.618 57.065 6.418 58.959c.659.494 1.647.659 2.8.659 3.046 0 7.74-1.482 13.092-3.788-4.117-4.776-8.975-12.434-13.01-20.503z" fill="url(#paint0_linear_569_39846)"/><path d="M71 20.421c-.412-3.293-3.294-4.446-17.621-9.058l-10.54-3.54S22.664 0 10.066 0C5.454 0 1.914 1.07.596 3.87c-2.305 5.188 2.388 18.857 8.729 31.455 3.952-10.787 10.21-21.738 16.633-24.456 8.4-3.458 42.654 4.365 43.23 10.211.66 6.588-27.75 26.432-46.853 34.831 2.882 3.376 5.352 5.435 7.246 5.27C38.227 60.687 70.918 25.444 71 20.504v-.083z" fill="url(#paint1_linear_569_39846)"/><path d="M31.733 54.428c-5.106 3.129 10.21 6.258 17.457 1.235 7.246-5.023 18.774-26.35 18.61-29.561a.177.177 0 00-.165-.165c-1.153 0-11.61 13.751-35.902 28.49z" fill="url(#paint2_linear_569_39846)"/><path d="M53.467 15.152c0-.247-.083-.494-.247-.741-.742-2.306-2.965-.823-4.282.247-.165 0-.33 0-.494-.082-1.153-.577-1.73.576-2.47 1.235a.449.449 0 00-.577-.412c.082-.247-.082-.494-.412-.411-1.317.576-4.2 1.152-4.282 1.152-.411.247-.905.906-1.317 1.153-.083-.082-.165-.082-.247-.082-.33 0-.494.33-.577.576-.494.576-.411 1.153-.658 1.812-.083-.824-.577-1.07-1.318-.412-1.564.494-1.07 3.047-2.553 3.705-.576.165-.494.66 0 .906.33.247.33.33.33.33-.247.494-1.73.494-1.647 1.152 0 .165.082.33.082.494-.411.33-.576 1.07-.988 1.483-.082 0-.082-.083-.164-.083-.083 0-.248-.082-.412-.082-.165 0-.33 0-.494.082l-.165.083c-.412-.412-.576-1.153-.988-1.483.33-1.317-.659-1.317-1.565-1.729.165-.164.824-.412.742-.823 0-.247-.247-.33-.412-.412-1.482-.659-.906-3.211-2.47-3.705-.742-.66-1.318-.412-1.318.411-.165-.658-.165-1.235-.659-1.811-.164-.247-.247-.577-.576-.577-.082 0-.165 0-.247.083-.494-.247-.988-.906-1.318-1.153 0 0-2.882-.576-4.281-1.153-.248-.082-.495.165-.412.412-.33 0-.577.165-.577.412-.74-.66-1.317-1.812-2.47-1.236-.165.083-.412.083-.494.083-1.317-1.07-3.623-2.47-4.282-.247-.823.988.412 1.976 1.235 2.552-.988.577-.494 2.47.33 2.965-.247.494-.66 1.235.082 1.729 1.07.33 2.223.988 3.294.988-.33.412-1.647.577-1.647 1.153 0 .33.247.659.988 1.153.494.659 1.235 1.4 2.14 1.564.166.083.495.083.577.165-.082.494.165.741.412.823.33.247 1.153.083 1.647.165-.412.33-.33.906.082 1.153-.247.659.165.988 0 1.564 0 .083-.247.247-.494.33-.494.165-.659.247-.823.494-.659.082-1.235.906-.577 1.4-.082.247 0 .411.165.576.165.247.082.576.494.494.165-.082.247-.082.33-.082-.906 1.235.411 1.4.329 2.552 0 .165.082.33.165.495-.989.247-.906.988-.906 1.4 0 .329 0 .329-.165.329-.412.082-.494.576-.165.823 1.07.988 1.73 2.223 2.059 3.706 0 .164.165.247.247.247.412.082.247-.577.576-.577.247 0 .66.494.66.988.081.741.658.494 1.07.165.082.165.329.082.494-.082.247-.412.411-.906.74-1.318-.082.33-.246.741-.329.988-.082.33-.329.66 0 .824.495.164.824.33.906.823 0 .165.247.33.412.247.33.165.659-.247.906-.411.576-.495.905-.824 1.235 0 .082.247.576.164.659.082.823-.494 0-3.953.905-4.282.412.165.741.082.989-.165.082.083.164.083.329.083a.62.62 0 00.576-.412c.33-1.07.083-1.976.412-2.964.082-.247.082-.412.082-.577.083-.247.33-.659.083-.906-.412-.329.164-1.152.576-1.729.247-.412.906-.906.412-1.564.165-.247.165-.824-.33-.824l1.07-2.14 1.071 2.14c-.494-.082-.411.494-.329.741v.083c-.494.658.165 1.07.494 1.564.412.577.988 1.4.576 1.73-.247.246 0 .576.083.905.082.247 0 .33.082.577.33.988.165 1.894.412 2.964a.62.62 0 00.576.412c.083 0 .165 0 .247-.083.247.247.577.33.988.165.906.33.165 3.788.906 4.282.083.082.577.165.659-.082.33-.742.659-.412 1.235 0 .247.164.577.658.906.411.164.083.412 0 .412-.247.082-.411.329-.576.905-.823.33-.165.083-.494 0-.824-.082-.247-.247-.658-.329-.988.247.412.494.906.741 1.318.082.082.247.164.33.164l.082-.082c.33.412.988.576 1.07-.165 0-.411.412-.905.659-.988.33 0 .247.659.576.577.165 0 .247-.083.247-.247.248-1.483.906-2.718 2.059-3.706.082-.082.247-.247.165-.494-.083-.247-.247-.33-.412-.33-.165 0-.165 0-.082-.329.082-.411.164-1.07-.906-1.4.082-.164.165-.329.165-.576-.083-1.07 1.235-1.317.329-2.553.247 0 .659.247.659-.164 0-.083 0-.165.082-.247.165-.165.165-.33.165-.577.74-.494.164-1.317-.577-1.4-.164-.247-.33-.411-.823-.494-.247-.082-.494-.247-.494-.329-.165-.576.33-.906 0-1.564.412-.247.576-.906.082-1.153.494-.083 1.235.082 1.647-.165.165-.082.412-.247.412-.741.082-.082.412-.165.576-.165.988-.247 1.73-.988 2.223-1.564 1.318-.741 1.318-1.482.083-1.894-.33-.165-.659-.247-.741-.412 1.07 0 2.223-.659 3.293-.988.741-.494.33-1.235.083-1.73.823-.493 1.235-2.387.33-2.964.164-.329.987-.988 1.07-1.729z" fill="#fff"/><defs><linearGradient id="paint0_linear_569_39846" x1="5.248" y1="35.129" x2="16.957" y2="59.719" gradientUnits="userSpaceOnUse"><stop stop-color="#77C5E0"/><stop offset="1" stop-color="#55A8DD"/></linearGradient><linearGradient id="paint1_linear_569_39846" x1="45.081" y1="9.953" x2="12.88" y2="46.837" gradientUnits="userSpaceOnUse"><stop stop-color="#4C88C3"/><stop offset="1" stop-color="#3C75B6"/></linearGradient><linearGradient id="paint2_linear_569_39846" x1="72.026" y1="25.759" x2="30.458" y2="54.447" gradientUnits="userSpaceOnUse"><stop stop-color="#F8EA6A"/><stop offset="1" stop-color="#F2BD5E"/></linearGradient></defs></svg>