<svg width="37" height="41" fill="none" xmlns="http://www.w3.org/2000/svg"><path d="M26.296 31.996h10.216l-4.628-7.103h3.47l-5.205-7.99h2.892L22.196.26l-6.241 9.578c-1.841-2.164-3.38-3.598-3.54-3.746l-.797-.736-.797.736C10.4 6.481.51 15.701.51 23.762c0 5.727 4.358 10.455 9.932 11.044v3.221H4.41v2.35h26.977v-2.35h-5.091v-6.031zm-5.739 6.031v-6.031h3.389v6.031h-3.389zM2.862 23.762c0-5.813 6.461-12.848 8.756-15.164a48.889 48.889 0 014.054 4.638c3.076 4.03 4.702 7.67 4.702 10.526 0 4.43-3.307 8.101-7.581 8.677v-3.273l4.251-4.251-1.661-1.662-2.59 2.59V21.16h-2.35v4.683l-2.59-2.59-1.661 1.662 4.25 4.252v3.272c-4.274-.576-7.58-4.247-7.58-8.677zm22.95-9.208l5.207 7.99h-3.47l4.627 7.102H21.033a11.04 11.04 0 001.691-5.884c0-4.147-2.617-8.601-5.216-12.002l4.688-7.196 6.509 9.99h-2.892zm-13.02 23.473v-3.221a11.047 11.047 0 005.415-2.11v5.331h-5.414z" fill="#CFC393"/></svg>