<svg width="60" height="45" fill="none" xmlns="http://www.w3.org/2000/svg"><path d="M11.564 10.015c3.492 0 6.807-1.421 9.218-3.844A13.032 13.032 0 0030 10.015c3.493 0 6.808-1.42 9.218-3.844a13.032 13.032 0 009.218 3.844c4.622 0 8.932-2.489 11.248-6.495a2.346 2.346 0 00-4.061-2.348 8.327 8.327 0 01-7.187 4.152 8.329 8.329 0 01-7.188-4.152 2.346 2.346 0 00-4.061 0A8.324 8.324 0 0130 5.325a8.334 8.334 0 01-7.189-4.153 2.345 2.345 0 00-4.06 0 8.327 8.327 0 01-7.187 4.153 8.329 8.329 0 01-7.188-4.152A2.346 2.346 0 00.315 3.52a13.03 13.03 0 0011.249 6.495zm47.264 7.501a2.346 2.346 0 00-3.205.857 8.327 8.327 0 01-7.187 4.151 8.328 8.328 0 01-7.188-4.151 2.346 2.346 0 00-4.061 0A8.323 8.323 0 0130 22.524a8.334 8.334 0 01-7.189-4.152 2.345 2.345 0 00-4.06 0 8.328 8.328 0 01-7.187 4.152 8.329 8.329 0 01-7.188-4.152 2.345 2.345 0 10-4.062 2.349 13.033 13.033 0 0011.25 6.495c3.492 0 6.807-1.422 9.218-3.845a13.032 13.032 0 009.219 3.845c3.493 0 6.807-1.421 9.217-3.844a13.032 13.032 0 009.218 3.844c4.622 0 8.932-2.489 11.248-6.495a2.347 2.347 0 00-.858-3.205zm0 17.201a2.346 2.346 0 00-3.205.857 8.327 8.327 0 01-7.187 4.151 8.328 8.328 0 01-7.188-4.151 2.346 2.346 0 00-4.061 0A8.323 8.323 0 0130 39.725a8.334 8.334 0 01-7.189-4.152 2.345 2.345 0 00-4.06 0 8.328 8.328 0 01-7.187 4.152 8.329 8.329 0 01-7.188-4.152 2.346 2.346 0 00-4.062 2.349 13.033 13.033 0 0011.25 6.495c3.492 0 6.807-1.422 9.218-3.845a13.032 13.032 0 009.219 3.844c3.493 0 6.807-1.42 9.217-3.843a13.032 13.032 0 009.218 3.843c4.622 0 8.932-2.488 11.248-6.494a2.347 2.347 0 00-.858-3.205z" fill="#CFC393"/></svg>