<svg width="76" height="82" fill="none" xmlns="http://www.w3.org/2000/svg"><path d="M73.73 77.692h-.034V30.53c0-.068 0-.136-.01-.203v-.035c-.012-.044-.012-.1-.023-.146a.21.21 0 00-.022-.079c-.012-.033-.012-.067-.023-.101-.01-.034-.023-.067-.034-.101-.011-.023-.011-.045-.022-.067-.012-.035-.034-.068-.045-.102l-.034-.068c-.023-.033-.034-.067-.056-.09l-.035-.067c-.022-.023-.033-.057-.055-.079-.023-.022-.034-.046-.057-.068-.023-.022-.034-.045-.056-.067-.022-.023-.046-.056-.068-.079-.011-.022-.033-.034-.056-.045l-.079-.079c-.011-.012-.033-.023-.056-.045-.034-.023-.068-.045-.09-.067-.023-.012-.045-.023-.057-.035a1.05 1.05 0 00-.09-.055c-.033-.012-.056-.035-.09-.046-.022-.011-.056-.022-.078-.033-.046-.023-.09-.034-.136-.046-.011 0-.022-.011-.045-.011-.056-.022-.123-.034-.18-.045h-.011l-9.404-1.97V7.33c0-.068 0-.135-.01-.203 0-.01 0-.022-.012-.045-.011-.045-.011-.101-.022-.146-.012-.034-.012-.057-.023-.08-.011-.033-.011-.066-.022-.09l-.035-.1c-.01-.023-.01-.045-.022-.068-.011-.034-.033-.068-.044-.112a.251.251 0 00-.035-.057c-.022-.034-.033-.067-.056-.101a.18.18 0 00-.034-.056c-.022-.023-.034-.057-.056-.08-.022-.022-.033-.044-.057-.067-.022-.022-.033-.045-.056-.067-.022-.023-.045-.046-.067-.08a.217.217 0 00-.056-.045 6.505 6.505 0 01-.08-.078.197.197 0 01-.056-.045c-.033-.023-.056-.045-.09-.067l-.067-.035c-.034-.022-.057-.033-.09-.056-.034-.01-.056-.034-.09-.045a.52.52 0 00-.08-.034c-.044-.022-.101-.033-.146-.056-.01 0-.022-.012-.033-.012-.068-.022-.136-.033-.203-.055L35.285.022C35.228.012 35.172 0 35.127 0h-.416c-.045 0-.08.011-.125.022-.022 0-.044 0-.055.012h-.024L13.145 4.212c-.057.01-.101.022-.158.033-.011 0-.022 0-.034.012-.044.011-.09.034-.134.045-.012 0-.023.011-.046.011-.033.011-.067.034-.09.045a1.925 1.925 0 00-.63.484c0 .011-.012.011-.012.023a.173.173 0 01-.045.056c-.123.169-.225.36-.293.563 0 .011-.01.022-.01.022-.012.024-.012.046-.023.068-.011.034-.022.08-.034.113v.033c-.012.057-.023.102-.023.158v.023c0 .056-.011.112-.011.169v14.91l-7.444 1.464c-.056.011-.112.022-.168.045-.011 0-.011 0-.023.01-.056.012-.1.035-.158.058-.01 0-.022.01-.033.01-.034.012-.068.034-.101.045a2.16 2.16 0 00-.598.451c-.01.012-.022.034-.044.045a.233.233 0 00-.035.057c-.146.19-.258.416-.326.653-.011.044-.022.078-.034.123v.023c-.01.057-.022.112-.022.17v.01c-.011.056-.011.124-.011.18v53.379H2.57a1.913 1.913 0 00-1.914 1.914c0 1.059.856 1.914 1.914 1.914h71.172a1.913 1.913 0 001.914-1.914 1.931 1.931 0 00-1.925-1.925zM34.25 24.583c.146.057.315.09.472.102l35.147 7.376v6.396l-43.941-9.223v-6.397l8.322 1.746zm35.619 23.83l-43.941-9.224v-6.734l43.941 9.223v6.734zm0 3.22V58.3l-43.941-9.155V42.41l43.941 9.223zm-43.941.731l43.941 9.168v6.734L25.927 59.11v-6.747zm43.941 19.123v6.205H25.927V62.32l43.941 9.167zM36.794 21.205V4.245l22.15 4.628v16.983l-22.15-4.65zM15.408 7.647l17.557-3.435v16.193l-8.559-1.79c-.022 0-.056-.011-.079-.011-.022 0-.056-.012-.078-.012-.046-.01-.09-.01-.136-.01h-.27c-.067.01-.146.01-.213.033l-8.222 1.61V7.648zM6.422 25.889l7.162-1.407c.192-.011.383-.045.552-.113l7.962-1.565v6.419l-12.895 2.67a1.581 1.581 0 00-1.227 1.857c.158.743.81 1.261 1.543 1.261.1 0 .213-.011.315-.034l12.252-2.533v6.734L9.192 41.847a1.582 1.582 0 00-1.227 1.858c.157.743.81 1.261 1.542 1.261.102 0 .214-.011.316-.033l12.252-2.534v6.745L9.181 51.813a1.583 1.583 0 00-1.227 1.858c.157.743.81 1.261 1.542 1.261.102 0 .214-.01.316-.033l12.252-2.535V59.1L9.17 61.768a1.584 1.584 0 00-1.228 1.858 1.586 1.586 0 001.543 1.262c.101 0 .214-.012.315-.035l12.298-2.533v15.372H6.422V25.889z" fill="#262626"/><path d="M54.968 14.899l-13.514-2.782a1.563 1.563 0 00-1.857 1.228c-.18.855.37 1.689 1.227 1.858l13.513 2.781c.113.022.214.034.316.034.732 0 1.385-.518 1.543-1.26a1.575 1.575 0 00-1.228-1.86z" fill="#262626"/></svg>