<svg width="58" height="57" fill="none" xmlns="http://www.w3.org/2000/svg"><path d="M56.629 53.538L39.113 27.265c-.946-1.418-3.079-1.292-3.844.24l-4.577 9.153-8.956-17.911c-.819-1.638-3.163-1.64-3.983 0L.237 53.777C-.502 55.257.574 57 2.23 57h52.547c1.774 0 2.838-1.983 1.852-3.462zM5.83 52.547L19.745 24.72 28.7 42.633c.819 1.637 3.164 1.64 3.983 0l4.853-9.706 13.08 19.62H5.83zM37.26 17.59c4.85 0 8.795-3.945 8.795-8.795S42.11 0 37.26 0s-8.795 3.946-8.795 8.795c0 4.85 3.946 8.795 8.795 8.795zm0-13.137a4.346 4.346 0 014.342 4.342 4.346 4.346 0 01-4.342 4.342 4.346 4.346 0 01-4.342-4.342 4.347 4.347 0 014.342-4.342z" fill="#fff"/></svg>