<svg width="54" height="55" fill="none" xmlns="http://www.w3.org/2000/svg"><path d="M52.43 5.017L1.914.009a1.741 1.741 0 10-.344 3.466l48.946 4.853v3.104H1.742a1.742 1.742 0 000 3.483h39.302v35.601H28.742V37.125h7.186a1.742 1.742 0 100-3.484H18.073a1.742 1.742 0 000 3.484h7.185v13.391h-5.661v-8.6c0-.963-.78-1.743-1.742-1.743h-8.6V29.94a1.742 1.742 0 00-3.485 0v20.577H1.742a1.742 1.742 0 000 3.484h45.29a1.742 1.742 0 000-3.484h-2.504v-35.6h7.73c.962 0 1.742-.78 1.742-1.742V6.75c0-.895-.679-1.645-1.57-1.733zM9.254 43.657h6.859v6.86H9.254v-6.86zm43.174 6.868a1.752 1.752 0 00-1.276.386c-1.205.997-.59 2.933.934 3.08 2.303.22 2.623-3.248.342-3.466z" fill="#CFC393"/></svg>