<svg width="75" height="86" fill="none" xmlns="http://www.w3.org/2000/svg"><path d="M72.5 0A2.5 2.5 0 0070 2.5V15h-5V7.5A2.5 2.5 0 0062.5 5h-10A2.5 2.5 0 0050 7.5V15h-5V7.5A2.5 2.5 0 0042.5 5h-10A2.5 2.5 0 0030 7.5V15h-5V7.5A2.5 2.5 0 0022.5 5h-10A2.5 2.5 0 0010 7.5V15H5V2.5a2.5 2.5 0 00-5 0v80.333a2.5 2.5 0 005 0v-2.5h65v2.5a2.5 2.5 0 005 0V2.5A2.5 2.5 0 0072.5 0zM55 10h5v5h-5v-5zm-20 0h5v5h-5v-5zm-20 0h5v5h-5v-5zm55 10v30.167h-5v-7.5c0-3.26-2.09-6.038-5-7.07v-7.93a2.5 2.5 0 00-5 0v7.93c-2.91 1.032-5 3.81-5 7.07v7.5h-5v-7.5c0-3.26-2.09-6.038-5-7.07v-7.93a2.5 2.5 0 00-5 0v7.93c-2.91 1.032-5 3.81-5 7.07v7.5h-5v-7.5c0-3.26-2.09-6.038-5-7.07v-7.93a2.5 2.5 0 00-5 0v7.93c-2.91 1.032-5 3.81-5 7.07v7.5H5V20h65zM55 50.167v-7.5c0-1.379 1.121-2.5 2.5-2.5s2.5 1.121 2.5 2.5v7.5h-5zm-20 0v-7.5c0-1.379 1.121-2.5 2.5-2.5s2.5 1.121 2.5 2.5v7.5h-5zm-20 0v-7.5c0-1.379 1.122-2.5 2.5-2.5s2.5 1.121 2.5 2.5v7.5h-5zm15 25.166H15v-7.5c0-1.378 1.122-2.5 2.5-2.5h10c1.378 0 2.5 1.122 2.5 2.5v7.5zm30 0H45v-7.5c0-1.378 1.121-2.5 2.5-2.5h10c1.379 0 2.5 1.122 2.5 2.5v7.5zm5 0v-7.5c0-4.135-3.364-7.5-7.5-7.5h-10c-4.136 0-7.5 3.365-7.5 7.5v7.5h-5v-7.5c0-4.135-3.364-7.5-7.5-7.5h-10c-4.136 0-7.5 3.365-7.5 7.5v7.5H5V55.167h65v20.166h-5z" fill="#262626"/></svg>