<svg width="75" height="75" fill="none" xmlns="http://www.w3.org/2000/svg"><path d="M46.537 64.23a2.195 2.195 0 003.047-.61l2.277-3.415h9.079c6.057 0 10.986-4.928 10.986-10.986V25.78c0-6.058-4.929-10.986-10.986-10.986h-9.08l-2.277-3.416a2.197 2.197 0 10-3.656 2.438l.652.978H14.065c-6.058 0-10.987 4.929-10.987 10.986v23.44c0 6.058 4.929 10.986 10.987 10.986H46.58l-.652.979a2.197 2.197 0 00.61 3.046zm3.332-10.146l-5.775-5.775V26.69l5.775-5.775c3.977 11.019 3.977 22.15 0 33.168zm-8.883-30.5H37.9l-.733-4.395h8.215l-4.395 4.395zM30.91 47.022V27.979h8.79v19.043h-8.79zm2.533-23.438h-3.701l-3.662-4.395h6.63l.733 4.395zm-11.361-2.328l4.434 5.32v21.847l-4.434 5.32c-3.814-10.794-3.814-21.692 0-32.487zm7.66 30.16h3.701l-.732 4.395H26.08l3.662-4.395zm8.156 0h3.088l4.395 4.395h-8.215l.733-4.395zM67.49 25.049h-3.62a2.197 2.197 0 000 4.394h3.661v16.114H63.87a2.197 2.197 0 000 4.394h3.62c-.365 3.291-3.162 5.86-6.55 5.86h-7.018c4.455-12.166 4.455-24.456 0-36.622h7.019c3.387 0 6.184 2.569 6.55 5.86zM7.473 49.219V25.78a6.6 6.6 0 016.592-6.592h4.088c-4.455 12.166-4.455 24.456 0 36.621h-4.088a6.6 6.6 0 01-6.592-6.591zm65.33 21.387H2.197a2.197 2.197 0 000 4.394h70.606a2.197 2.197 0 000-4.394zM2.197 4.395h70.606a2.197 2.197 0 000-4.395H2.197a2.197 2.197 0 000 4.395z" fill="#262626"/></svg>