<svg width="41" height="38" fill="none" xmlns="http://www.w3.org/2000/svg"><path d="M37.066.947H3.888A3.422 3.422 0 00.477 4.358v15.4a3.422 3.422 0 003.41 3.412h33.178a3.422 3.422 0 003.412-3.412v-15.4a3.423 3.423 0 00-3.411-3.41zm-27.7 20v-3.333h22.222v3.333H9.365zm28.888-1.189a1.188 1.188 0 01-1.188 1.19H33.81v-4.445a1.111 1.111 0 00-1.111-1.111H8.254a1.111 1.111 0 00-1.11 1.11v4.445H3.887a1.19 1.19 0 01-1.19-1.189v-15.4a1.189 1.189 0 011.19-1.189h33.178a1.188 1.188 0 011.188 1.19v15.4z" fill="#CFC393"/><path d="M10.477 5.392H6.033a1.111 1.111 0 100 2.222h4.444a1.111 1.111 0 000-2.222zm24.447 2.222a1.111 1.111 0 100-2.222 1.111 1.111 0 000 2.222zm-3.336 0a1.111 1.111 0 100-2.222 1.111 1.111 0 000 2.222zM11.586 28.492l.91-1.378a1.111 1.111 0 00-1.844-1.222l-.922 1.366a4.022 4.022 0 00.5 5.034 1.755 1.755 0 01.222 2.222l-.91 1.378a1.111 1.111 0 00.31 1.533c.182.128.4.194.623.189a1.112 1.112 0 00.922-.5l.922-1.367a4.022 4.022 0 00-.5-5.033 1.755 1.755 0 01-.233-2.222zm6.389 0l.91-1.378a1.111 1.111 0 00-.3-1.534 1.112 1.112 0 00-1.544.312l-.91 1.366a3.988 3.988 0 00.5 5.034 1.767 1.767 0 01.21 2.222l-.91 1.378a1.11 1.11 0 00.31 1.533c.18.125.393.191.611.189a1.112 1.112 0 00.923-.5l.922-1.367a4.022 4.022 0 00-.444-5.033 1.768 1.768 0 01-.278-2.222zm6.135 0l.91-1.378a1.111 1.111 0 10-1.844-1.222l-.922 1.366a4.022 4.022 0 00.5 5.034 1.766 1.766 0 01.222 2.222l-.911 1.378a1.111 1.111 0 00.3 1.533 1.111 1.111 0 001.146.055c.16-.088.298-.213.398-.366l.911-1.367a3.988 3.988 0 00-.5-5.033 1.767 1.767 0 01-.21-2.222zm6.366 0l.912-1.378a1.111 1.111 0 00-1.845-1.222l-.922 1.366a4.022 4.022 0 00.5 5.034 1.756 1.756 0 01.222 2.222l-.911 1.378a1.111 1.111 0 00.311 1.533 1.112 1.112 0 001.544-.311l.923-1.367a4.022 4.022 0 00-.5-5.033 1.756 1.756 0 01-.234-2.222z" fill="#CFC393"/></svg>