<svg width="60" height="54" fill="none" xmlns="http://www.w3.org/2000/svg"><path d="M59.142 12.857H.857a.858.858 0 01-.778-1.216L5.222.498A.857.857 0 016 0h48a.857.857 0 01.778.498l5.143 11.143a.857.857 0 01-.779 1.216zM2.197 11.143h55.606L53.45 1.714H6.549l-4.352 9.429z" fill="#CFC393"/><path d="M5.02 23.143A5.026 5.026 0 010 18.123V12a.857.857 0 01.857-.857h8.326a.857.857 0 01.857.857v6.122a5.027 5.027 0 01-5.02 5.02zM1.714 12.857v5.265a3.306 3.306 0 006.612 0v-5.265H1.714z" fill="#CFC393"/><path d="M13.346 23.143a5.027 5.027 0 01-5.02-5.02V12a.857.857 0 01.857-.857h8.326a.857.857 0 01.858.857v6.122a5.027 5.027 0 01-5.02 5.02zM10.04 12.857v5.265a3.306 3.306 0 006.612 0v-5.265H10.04z" fill="#CFC393"/><path d="M21.674 23.143a5.027 5.027 0 01-5.02-5.02V12a.857.857 0 01.857-.857h8.327a.857.857 0 01.857.857v6.122a5.026 5.026 0 01-5.02 5.02zM18.37 12.857v5.265a3.306 3.306 0 106.611 0v-5.265H18.37z" fill="#CFC393"/><path d="M30 23.143a5.026 5.026 0 01-5.02-5.02V12a.857.857 0 01.858-.857h8.326a.857.857 0 01.857.857v6.122a5.027 5.027 0 01-5.02 5.02zm-3.305-10.286v5.265a3.306 3.306 0 106.612 0v-5.265h-6.612z" fill="#CFC393"/><path d="M38.327 23.143a5.026 5.026 0 01-5.02-5.02V12a.857.857 0 01.857-.857h8.326a.857.857 0 01.857.857v6.122a5.027 5.027 0 01-5.02 5.02zM35.02 12.857v5.265a3.306 3.306 0 106.612 0v-5.265H35.02z" fill="#CFC393"/><path d="M46.653 23.143a5.026 5.026 0 01-5.02-5.02V12a.857.857 0 01.857-.857h8.326a.857.857 0 01.857.857v6.122a5.027 5.027 0 01-5.02 5.02zm-3.307-10.286v5.265a3.306 3.306 0 106.612 0v-5.265h-6.612z" fill="#CFC393"/><path d="M54.98 23.143a5.027 5.027 0 01-5.021-5.02V12a.857.857 0 01.857-.857h8.326A.857.857 0 0160 12v6.122a5.026 5.026 0 01-5.02 5.02zm-3.307-10.286v5.265a3.306 3.306 0 106.612 0v-5.265h-6.612z" fill="#CFC393"/><path d="M56.57 54H3.352a.857.857 0 01-.857-.858V21.428h1.714v30.857h51.506V21.428h1.714v31.714a.857.857 0 01-.857.857z" fill="#CFC393"/><path d="M49.714 54H35.142a.857.857 0 01-.857-.858v-24a.857.857 0 01.857-.857h14.572a.857.857 0 01.857.858v24a.857.857 0 01-.857.857zm-13.715-1.715h12.857V30H36v22.285zM30 46.714H8.572a.857.857 0 01-.857-.857V28.714a.857.857 0 01.857-.857H30a.857.857 0 01.858.857v17.143a.857.857 0 01-.858.857zM9.43 45h19.713V29.57H9.43V45z" fill="#CFC393"/></svg>