<svg width="41" height="41" fill="none" xmlns="http://www.w3.org/2000/svg"><path d="M15.855 4.284a1.172 1.172 0 00-1.657 0L11.712 6.77l-.442-.442a1.172 1.172 0 00-1.657 0L7.735 8.206a3.52 3.52 0 000 4.972l5.8 5.8-1.742 1.743a1.172 1.172 0 000 1.657l.442.442L1.05 34.004A3.491 3.491 0 00.023 36.49a3.504 3.504 0 003.513 3.514c.9 0 1.8-.343 2.486-1.028l11.184-11.184.442.442a1.172 1.172 0 001.657 0l1.743-1.743 5.8 5.8a3.492 3.492 0 002.486 1.029c.94 0 1.824-.366 2.486-1.028l1.879-1.879c.457-.457.457-1.2 0-1.657l-.442-.442 2.486-2.486c.457-.457.457-1.2 0-1.657L15.855 4.284zM4.365 37.319c-.457.457-1.2.457-1.657 0-.22-.22-.34-.514-.34-.829 0-.315.12-.609.34-.829l11.184-11.184 1.657 1.658L4.365 37.319zm25.798-6.685c-.22.22-.514.342-.828.342a1.16 1.16 0 01-.829-.342l-6.63-6.629a1.168 1.168 0 00-1.656 0l-1.743 1.743-4.198-4.199 1.742-1.742a1.17 1.17 0 000-1.657l-6.629-6.63a1.173 1.173 0 010-1.657l1.05-1.05 20.771 20.772-1.05 1.05zm1.436-3.977L13.37 8.427l1.658-1.657L33.257 25 31.6 26.657zm7.989-6.551a1.172 1.172 0 00-1.648.177l-.18.224a1.172 1.172 0 101.824 1.47l.181-.224a1.172 1.172 0 00-.177-1.647zM18.133 3.178c.3 0 .6-.115.828-.344l.834-.833A1.172 1.172 0 0018.138.344l-.834.833a1.172 1.172 0 00.829 2zM39.685 13.63a1.172 1.172 0 00-1.658-.005l-3.306 3.285a1.172 1.172 0 001.652 1.663l3.306-3.286a1.17 1.17 0 00.006-1.657zm-2.139-6.18l-5.859 5.86a1.172 1.172 0 101.657 1.656l5.86-5.859a1.172 1.172 0 10-1.658-1.657zm-9.093 4.12a1.168 1.168 0 001.657 0l9.566-9.567A1.172 1.172 0 0038.02.346l-9.566 9.566a1.172 1.172 0 000 1.657zm-3.875-2.748a1.168 1.168 0 001.657 0l4.373-4.373A1.172 1.172 0 1028.95 2.79l-4.372 4.373a1.172 1.172 0 000 1.658zm-2.476-2.98c.3 0 .6-.115.828-.344l2.86-2.86A1.172 1.172 0 1024.133.981l-2.86 2.86a1.172 1.172 0 00.829 2z" fill="#CFC393"/></svg>