<svg width="40" height="40" fill="none" xmlns="http://www.w3.org/2000/svg"><path d="M3.53 0h32.94A3.53 3.53 0 0140 3.53v32.94A3.53 3.53 0 0136.47 40H3.53A3.53 3.53 0 010 36.47V3.53A3.53 3.53 0 013.53 0zM2.352 17.059v8.823h7.059c.288 0 .566.106.781.297l5.295 4.706a1.176 1.176 0 11-1.564 1.76l-4.96-4.41h-6.61v8.236c0 .65.527 1.176 1.176 1.176h32.942c.65 0 1.176-.527 1.176-1.176V17.059h-3.53a1.177 1.177 0 010-2.353h3.53V3.529c0-.65-.527-1.176-1.176-1.176H14.118v2.353a1.177 1.177 0 01-2.353 0V2.353H3.529c-.65 0-1.176.527-1.176 1.176v11.177h9.412v-2.353a1.176 1.176 0 112.353 0v2.353h11.764a1.177 1.177 0 010 2.353H23.53v10c0 .65-.526 1.176-1.176 1.176h-3.53a1.176 1.176 0 110-2.353h2.354V17.06H2.352z" fill="#CFC393"/></svg>