<svg width="54" height="50" fill="none" xmlns="http://www.w3.org/2000/svg"><path d="M47.249 34.946H5.755l8.927-8.926-2.38-2.38L.492 35.453a1.687 1.687 0 000 2.38l11.812 11.812 2.396-2.397-8.944-8.926H47.25c2.329 0 6.75-1.687 6.75-8.437v-5.062h-3.375v5.062c0 4.725-2.835 5.062-3.375 5.062z" fill="#CFC393"/><path d="M39.3 2.396l8.943 8.926H6.75C4.42 11.322 0 13.01 0 19.76v5.062h3.375v-5.063c0-4.724 2.835-5.062 3.375-5.062h41.493l-8.926 8.927 2.379 2.379L53.508 14.19a1.687 1.687 0 000-2.38L41.696 0 39.3 2.396z" fill="#CFC393"/></svg>