<svg width="60" height="60" fill="none" xmlns="http://www.w3.org/2000/svg"><path d="M60 5.958a3.033 3.033 0 00-.9-2.17L56.212.9a3.033 3.033 0 00-2.159-.9h-.01c-.806 0-1.578.325-2.143.9L38.8 14H13V3a3 3 0 00-3-3H8a8.009 8.009 0 00-8 8v44.251A8.218 8.218 0 008.29 60H57a3 3 0 003-3V17a3 3 0 00-3-3h-3.8l5.9-5.9a3.015 3.015 0 00.9-2.142zM35.78 25a.667.667 0 01-.572-.2.691.691 0 01-.2-.564l.379-3.4a1.93 1.93 0 01.06-.21l3.939 3.94c-.065.013-.124.045-.192.053L35.78 25zm5.239-1.633l-4.376-4.377 10.9-10.9 4.374 4.373-10.898 10.904zm7.934-16.692l1.483-1.482 4.372 4.373-1.482 1.483-4.373-4.374zM2 8a6.006 6.006 0 016-6h2a1 1 0 011 1v40a1 1 0 01-1 1H8a7.984 7.984 0 00-6 2.714V8zm55 8a1 1 0 011 1v40a1 1 0 01-1 1H8.29A6.2 6.2 0 012 52.22V52a6.006 6.006 0 016-6h2a3 3 0 003-3V16h23.8l-2.271 2.271a3.862 3.862 0 00-1.129 2.334l-.379 3.407c-.031.332 0 .667.093.988H16a1 1 0 100 2h3v27a1 1 0 002 0V40h11v8h-7a1 1 0 000 2h20a2 2 0 002-2V33a1 1 0 00-2 0v5H21V27h14.708c.098 0 .195-.005.292-.016l3.417-.389a3.916 3.916 0 002.3-1.095l9.488-9.5H57zM45 40v8H34v-8h11zM57.69 6.682l-1.468 1.469-4.372-4.372 1.469-1.469a1.026 1.026 0 011.476.004L57.687 5.2c.201.198.314.469.313.751 0 .275-.113.539-.31.731z" fill="#CFC393"/></svg>