<svg width="60" height="61" fill="none" xmlns="http://www.w3.org/2000/svg"><path d="M35.004 60.524H0V11.686L17.502 0l17.502 11.686v48.838zM4.978 55.546H30V14.358L17.502 6.026 4.978 14.358v41.188z" fill="#CFC393"/><path d="M9.98 18.026h5.005v5.005H9.98v-5.005zm10.012 0h5.005v5.005h-5.005v-5.005zM9.98 28.035h5.005v5.004H9.98v-5.004zm10.012 0h5.005v5.004h-5.005v-5.004zM9.98 38.017h5.005v5.005H9.98v-5.005zm10.012 0h5.005v5.005h-5.005v-5.005zm-7.494 10.009h10.009v12.498H12.498V48.026zM60 60.524H30V21.616l15.013-9.013L60 21.616v38.908zm-24.996-4.978h20.018v-31.1l-10.009-6-10.009 6v31.1z" fill="#CFC393"/><path d="M40.008 25.52h10.008v5.004H40.008V25.52zm0 10.008h10.008v5.005H40.008v-5.005zm0 10.009h10.008v5.005H40.008v-5.005z" fill="#CFC393"/></svg>