<svg width="40" height="40" fill="none" xmlns="http://www.w3.org/2000/svg"><path d="M.294 19.146a1.172 1.172 0 00-.285.92l2.344 18.906A1.172 1.172 0 003.516 40h14.218c.592 0 1.09-.44 1.163-1.028l1.04-8.38c2.764-.314 4.215-2.003 4.215-4.265 0-1.942-1.055-4.333-3.136-7.108a1.181 1.181 0 00-.938-.469H1.172a1.17 1.17 0 00-.878.396zm4.257 18.51L2.731 22.97c2.485 2.144 5.143 3.945 7.795 5.276 2.514 1.26 4.964 2.06 7.053 2.314l-.88 7.097H4.55zm15.685-9.486l.608-4.905c.63 1.195.964 2.241.964 3.062 0 .4 0 1.468-1.572 1.843zm-2.37.064c-1.81-.214-3.998-.935-6.29-2.084-2.522-1.266-5.056-2.994-7.429-5.056h14.605l-.885 7.14zM31.797 0c-.647 0-1.172.525-1.172 1.172V18.75h-1.172c-.647 0-1.172.525-1.172 1.172v3.717a3.521 3.521 0 00-2.343 3.314c0 3.044-.492 6.129-1.423 8.92l-.861 2.585A1.172 1.172 0 0024.766 40h4.687c.392 0 .758-.196.975-.522l1.369-2.053 1.369 2.053c.217.326.583.522.975.522h4.687a1.172 1.172 0 001.112-1.542l-.861-2.585c-.931-2.79-1.423-5.875-1.423-8.92 0-1.528-.98-2.83-2.343-3.314v-3.717c0-.647-.525-1.172-1.172-1.172h-1.172V1.172C32.969.525 32.444 0 31.797 0zm1.172 21.094v2.343h-2.344v-2.343h2.344zm3.886 15.52l.347 1.042h-2.434l-1.996-2.993a1.172 1.172 0 00-1.95 0l-1.996 2.993h-2.434l.347-1.042c1.009-3.027 1.542-6.368 1.542-9.66 0-.647.526-1.173 1.172-1.173h4.688c.646 0 1.172.526 1.172 1.172 0 3.294.533 6.634 1.542 9.661zM16.484 11.719a4.693 4.693 0 00-4.687-4.688 4.693 4.693 0 00-4.688 4.688 4.693 4.693 0 004.688 4.687 4.693 4.693 0 004.687-4.687zm-7.03 0a2.346 2.346 0 012.343-2.344 2.346 2.346 0 012.344 2.344 2.346 2.346 0 01-2.344 2.344 2.346 2.346 0 01-2.344-2.344zm14.14-8.203A3.52 3.52 0 0020.078 0a3.52 3.52 0 00-3.515 3.516 3.52 3.52 0 003.515 3.515 3.52 3.52 0 003.516-3.515zm-4.688 0a1.173 1.173 0 012.344 0c0 .646-.526 1.171-1.172 1.171a1.173 1.173 0 01-1.172-1.171z" fill="#CFC393"/></svg>