<svg width="60" height="60" fill="none" xmlns="http://www.w3.org/2000/svg"><path d="M57.612 44.949L44.2 31.515a1.197 1.197 0 00-1.65 0l-2.66 2.66-3.132-3.125 7.561-7.602c3.16-.166 7.369-.153 7.555-.18.785-.12 2.288-1.33 7.375-8.173a1.17 1.17 0 00.226-.665v-3.079a1.17 1.17 0 00-.585-1.01 1.151 1.151 0 00-1.17 0l-5.38 3.192c-.46.146-2.474.618-4.197-1.836-1.862-2.66-1.03-3.937.146-4.941a59.378 59.378 0 015.467-3.472 1.184 1.184 0 00.585-.964 1.163 1.163 0 00-.505-1.004c-.166-.113-4.217-2.82-11.173-.126-5.373 2.074-6.125 4.808-6.191 5.114l-1.144 8.08-7.608 7.614-6.797-6.816a6.265 6.265 0 00-1.397-6.783.99.99 0 00-.185-.153L7.828.757A1.157 1.157 0 006.37.904L1.59 5.685a1.157 1.157 0 00-.147 1.457l7.509 11.491c.045.067.096.13.153.187a6.233 6.233 0 004.449 1.842 6.284 6.284 0 002.334-.446l6.797 6.817-8.327 8.326-7.98 1.13h-.086c-.306.074-3.033.819-5.115 6.199-2.66 6.956 0 11 .133 11.172a1.177 1.177 0 00.991.512 1.151 1.151 0 00.958-.578 59.897 59.897 0 013.471-5.467c1.005-1.177 2.301-1.995 4.948-.153 2.46 1.736 1.995 3.764 1.836 4.197l-3.192 5.38a1.157 1.157 0 00.997 1.755h3.08c.24-.004.473-.086.664-.232 6.983-5.161 8.094-6.65 8.187-7.402 0-.16 0-4.37.166-7.522l8.306-8.266 3.166 3.119-2.66 2.66a1.17 1.17 0 000 1.65L45.66 56.938a8.047 8.047 0 0011.373 0l.605-.605a8.026 8.026 0 000-11.372l-.027-.013zM37.25 15.76a1.19 1.19 0 00.326-.665l1.177-8.273c.073-.186.851-1.922 4.748-3.431a12.522 12.522 0 017.003-.878 36.017 36.017 0 00-3.73 2.48c-3.2 2.74-2.056 5.886-.54 8.047 2.375 3.372 5.647 3.206 7.037 2.66.053 0 3.877-2.28 3.877-2.28v.665c-2.182 2.926-4.808 6.178-5.7 6.896-1.53-.08-5.785.126-7.694.233a1.157 1.157 0 00-.765.339l-7.874 7.834-1.995-1.995 7.595-7.628a1.163 1.163 0 00-1.267-1.934 1.163 1.163 0 00-.376.298l-7.615 7.608-2.088-2.095 7.88-7.88zm-23.715 2.574a3.923 3.923 0 01-2.72-1.077L3.904 6.663 7.35 3.218l10.594 6.93a3.99 3.99 0 01-.08 5.533l-1.523 1.522a3.943 3.943 0 01-2.806 1.158v-.027zm7.94 24.693a1.13 1.13 0 00-.339.758c-.106 1.915-.313 6.165-.226 7.694-.718.892-3.99 3.525-6.903 5.706h-.665l2.3-3.877c.566-1.396.74-4.655-2.66-7.036-2.16-1.516-5.32-2.66-8.053.539a36.37 36.37 0 00-2.48 3.73 12.476 12.476 0 01.884-7.002c1.516-3.93 3.259-4.655 3.432-4.755l8.306-1.177a1.15 1.15 0 00.665-.326l8.592-8.606 2.095 2.089-8.4 8.406a1.15 1.15 0 000 1.642 1.15 1.15 0 001.643 0l8.4-8.4 1.995 1.996-8.586 8.619zM17.87 18.926l.12-.106 1.516-1.517.106-.12 18.621 18.621-1.742 1.743L17.87 18.926zm38.1 35.779l-.606.612a5.733 5.733 0 01-8.086 0L34.675 42.68l2.66-2.66 3.392-3.385 2.66-2.66L56.023 46.61a5.705 5.705 0 01-.053 8.094z" fill="#CFC393"/><path d="M42.656 40.327a1.15 1.15 0 00-1.643 0 1.164 1.164 0 000 1.642l9.976 9.976a1.167 1.167 0 001.649-1.65l-9.982-9.968z" fill="#CFC393"/></svg>