<svg width="60" height="53" fill="none" xmlns="http://www.w3.org/2000/svg"><path d="M4.807 22.394c.312.125.674.125.987-.025l9.754-4.434c.625-.3.887-1.049.587-1.673-.287-.6-.999-.875-1.611-.6l-6.832 3.11c3.26-9.754 12.34-16.274 22.794-16.274 10.953 0 20.533 7.319 23.293 17.798a1.251 1.251 0 001.524.887 1.251 1.251 0 00.887-1.524C53.142 8.093 42.576 0 30.486 0 18.958 0 8.928 7.194 5.306 17.96l-2.872-7.18a1.256 1.256 0 00-1.574-.8 1.256 1.256 0 00-.8 1.574.8.8 0 00.063.15l3.984 9.992c.125.312.375.574.7.699zm55.117 18.435a.177.177 0 01-.025-.075l-3.984-9.992a1.242 1.242 0 00-.7-.7 1.288 1.288 0 00-.986.026l-9.755 4.434a1.254 1.254 0 00-.674 1.636c.262.637.999.936 1.636.674l.075-.037 6.832-3.11c-3.285 9.754-12.378 16.274-22.819 16.274-10.953 0-20.533-7.32-23.293-17.798a1.251 1.251 0 00-1.524-.887 1.251 1.251 0 00-.887 1.524c3.035 11.578 13.614 19.659 25.704 19.659 11.528 0 21.545-7.194 25.18-17.96l2.872 7.181a1.248 1.248 0 102.349-.85z" fill="#CFC393"/></svg>