<svg width="42" height="55" fill="none" xmlns="http://www.w3.org/2000/svg"><path d="M31.633 23.825h6.75c1.856 0 3.375-1.462 3.375-3.262v-10.35c0-1.8-1.519-3.263-3.375-3.263h-2.25v-4.5A2.257 2.257 0 0033.883.2h-31.5a2.257 2.257 0 00-2.25 2.25V13.7a2.257 2.257 0 002.25 2.25h31.5a2.257 2.257 0 002.25-2.25V9.2h2.25c.619 0 1.125.45 1.125 1.013v10.35c0 .562-.506 1.012-1.125 1.012h-6.75c-1.856 0-3.375 1.463-3.375 3.263v3.487h-4.5c-.619 0-1.125.506-1.125 1.125v18a6.755 6.755 0 006.75 6.75 6.755 6.755 0 006.75-6.75v-18c0-.619-.506-1.125-1.125-1.125h-4.5v-3.487c0-.563.506-1.013 1.125-1.013zm2.25-10.125h-31.5V2.45h31.5V13.7zm-4.5 38.25a4.499 4.499 0 01-4.5-4.5V35.075h9V47.45a4.5 4.5 0 01-4.5 4.5zm4.5-19.125h-9v-2.25h9v2.25z" fill="#CFC393"/></svg>