<?xml version="1.0" encoding="utf-8"?><svg viewBox="0 0 56 54" xmlns="http://www.w3.org/2000/svg" xmlns:xlink="http://www.w3.org/1999/xlink"><style>:root>svg{display:none}:root>svg:target{display:block}</style><svg fill="none" viewBox="0 0 19 24" id="icon-arrow-down" xmlns="http://www.w3.org/2000/svg"><path d="M18 16l-9 7m0 0l-8-7m8 7V0" stroke="#fff"/></svg><svg fill="none" viewBox="0 0 7 12" id="icon-arrow-next" xmlns="http://www.w3.org/2000/svg"><path d="M1 1l5 5.217L1 11" stroke="currentColor" stroke-width="2" stroke-linecap="round" stroke-linejoin="round"/></svg><svg fill="none" viewBox="0 0 7 12" id="icon-arrow-prev" xmlns="http://www.w3.org/2000/svg"><path d="M6 11L1 5.783 6 1" stroke="currentColor" stroke-width="2" stroke-linecap="round" stroke-linejoin="round"/></svg><svg fill="none" viewBox="0 0 13 7" id="icon-caret" xmlns="http://www.w3.org/2000/svg"><path d="M12.159 1L7.566 5.593a1.399 1.399 0 01-1.973 0L1 1" stroke="#363636" stroke-width="1.5" stroke-miterlimit="10" stroke-linecap="round" stroke-linejoin="round"/></svg><svg fill="none" viewBox="0 0 13 7" id="icon-caret-gold" xmlns="http://www.w3.org/2000/svg"><path d="M12.159 1L7.566 5.593a1.399 1.399 0 01-1.973 0L1 1" stroke="#CFC393" stroke-width="1.5" stroke-miterlimit="10" stroke-linecap="round" stroke-linejoin="round"/></svg><svg fill="none" viewBox="0 0 13 7" id="icon-caret-white" xmlns="http://www.w3.org/2000/svg"><path d="M12.159 1L7.566 5.593a1.399 1.399 0 01-1.973 0L1 1" stroke="#fff" stroke-width="1.5" stroke-miterlimit="10" stroke-linecap="round" stroke-linejoin="round"/></svg><svg fill="none" viewBox="0 0 19 17" id="icon-like" xmlns="http://www.w3.org/2000/svg"><path d="M9.95 15.924a1.838 1.838 0 01-1.046 0C6.461 15.09 1 11.61 1 5.711 1 3.107 3.098 1 5.685 1c1.534 0 2.89.742 3.742 1.888A4.66 4.66 0 0113.169 1c2.587 0 4.685 2.107 4.685 4.71 0 5.9-5.46 9.38-7.905 10.214z" stroke="currentColor" stroke-width="1.5" stroke-linecap="round" stroke-linejoin="round"/></svg><svg fill="none" viewBox="0 0 13 5" id="icon-phone" xmlns="http://www.w3.org/2000/svg"><path d="M12.416 2.43A8.824 8.824 0 006.322 0 8.83 8.83 0 00.224 2.435.762.762 0 000 2.979c0 .21.083.408.224.54L1.476 4.77c.289.288.809.28 1.077.012a5.533 5.533 0 011.279-.89c.282-.136.383-.47.383-.737V1.772c.672-.18 1.436-.197 2.107-.197.712 0 1.457.017 2.108.196v1.385c0 .35.141.627.375.74.476.239.91.538 1.285.89a.786.786 0 00.534.214c.207 0 .4-.079.545-.223l1.252-1.252a.765.765 0 00.224-.546c0-.207-.08-.4-.23-.55z" fill="currentColor"/></svg><svg fill="none" viewBox="0 0 56 54" id="icon-play" xmlns="http://www.w3.org/2000/svg"><path fill-rule="evenodd" clip-rule="evenodd" d="M55.006 27c0 14.912-12.313 27-27.503 27S0 41.912 0 27 12.314 0 27.503 0c15.19 0 27.503 12.088 27.503 27zm-19.79.192a1 1 0 010 1.616l-9.626 7.03a1 1 0 01-1.59-.807V20.97a1 1 0 011.59-.808l9.626 7.031z" fill="currentColor"/></svg><svg fill="none" viewBox="0 0 18 18" id="icon-user" xmlns="http://www.w3.org/2000/svg"><path d="M9 8.998a3.75 3.75 0 100-7.5 3.75 3.75 0 000 7.5zM15.44 16.5c0-2.902-2.888-5.25-6.443-5.25-3.555 0-6.442 2.348-6.442 5.25" stroke="currentColor" stroke-width="1.5" stroke-linecap="round" stroke-linejoin="round"/></svg></svg>