<?xml version="1.0" encoding="utf-8"?><svg viewBox="0 0 101 60" xmlns="http://www.w3.org/2000/svg" xmlns:xlink="http://www.w3.org/1999/xlink"><style>:root>svg{display:none}:root>svg:target{display:block}</style><svg fill="none" viewBox="0 0 29 12" id="icon-arrow-back" xmlns="http://www.w3.org/2000/svg"><path d="M5.121 1L1.004 6.294m0 0L5.12 11M1.004 6.294h27.059" stroke="currentColor"/></svg><svg fill="none" viewBox="0 0 19 24" id="icon-arrow-down" xmlns="http://www.w3.org/2000/svg"><path d="M18 16l-9 7m0 0l-8-7m8 7V0" stroke="#fff"/></svg><svg fill="none" viewBox="0 0 62 24" id="icon-arrow-link" xmlns="http://www.w3.org/2000/svg"><path d="M50.87 1L60 12.74m0 0l-9.13 10.434M60 12.739H0" stroke="currentColor" stroke-width="2"/></svg><svg fill="none" viewBox="0 0 7 12" id="icon-arrow-next" xmlns="http://www.w3.org/2000/svg"><path d="M1 1l5 5.217L1 11" stroke="currentColor" stroke-width="2" stroke-linecap="round" stroke-linejoin="round"/></svg><svg fill="none" viewBox="0 0 7 12" id="icon-arrow-prev" xmlns="http://www.w3.org/2000/svg"><path d="M6 11L1 5.783 6 1" stroke="currentColor" stroke-width="2" stroke-linecap="round" stroke-linejoin="round"/></svg><svg fill="none" viewBox="0 0 12 10" id="icon-car" xmlns="http://www.w3.org/2000/svg"><path d="M10.429 3.42l-.76-2.28A1.664 1.664 0 008.089 0H3.022a1.664 1.664 0 00-1.58 1.14l-.76 2.28A1.111 1.111 0 000 4.443v2.778c0 .41.224.765.556.957v1.265A.556.556 0 001.11 10h.556a.556.556 0 00.555-.556v-1.11H8.89v1.11a.556.556 0 00.555.556H10a.555.555 0 00.556-.556V8.18a1.105 1.105 0 00.555-.957V4.444a1.112 1.112 0 00-.682-1.025zM3.023 1.11h5.065c.24 0 .451.152.527.38l.614 1.842H1.882l.614-1.842a.556.556 0 01.527-.38zM1.944 6.667a.834.834 0 11.001-1.668.834.834 0 010 1.668zm7.223 0a.834.834 0 110-1.668.834.834 0 010 1.668z" fill="#7F8884"/></svg><svg fill="none" viewBox="0 0 13 7" id="icon-caret" xmlns="http://www.w3.org/2000/svg"><path d="M12.159 1L7.566 5.593a1.399 1.399 0 01-1.973 0L1 1" stroke="#363636" stroke-width="1.5" stroke-miterlimit="10" stroke-linecap="round" stroke-linejoin="round"/></svg><svg fill="none" viewBox="0 0 13 7" id="icon-caret-gold" xmlns="http://www.w3.org/2000/svg"><path d="M12.159 1L7.566 5.593a1.399 1.399 0 01-1.973 0L1 1" stroke="#CFC393" stroke-width="1.5" stroke-miterlimit="10" stroke-linecap="round" stroke-linejoin="round"/></svg><svg fill="none" viewBox="0 0 13 7" id="icon-caret-white" xmlns="http://www.w3.org/2000/svg"><path d="M12.159 1L7.566 5.593a1.399 1.399 0 01-1.973 0L1 1" stroke="#fff" stroke-width="1.5" stroke-miterlimit="10" stroke-linecap="round" stroke-linejoin="round"/></svg><svg fill="none" viewBox="0 0 28 28" id="icon-check-list" xmlns="http://www.w3.org/2000/svg"><path d="M27.49 10.518a1.073 1.073 0 10-2.078.535 11.786 11.786 0 11-4.533-6.632 1.071 1.071 0 001.49-.235 1.072 1.072 0 00-.247-1.5A13.8 13.8 0 0014.001.07 13.929 13.929 0 1027.929 14c0-1.175-.148-2.344-.439-3.482z" fill="#CFC393"/><path d="M8.333 12.168a1.075 1.075 0 10-1.522 1.521l5.357 5.357a1.07 1.07 0 001.522 0L25.476 7.261a1.076 1.076 0 00-1.522-1.522L12.929 16.775l-4.596-4.607z" fill="#CFC393"/></svg><svg fill="none" viewBox="0 0 23 23" id="icon-close" xmlns="http://www.w3.org/2000/svg"><path d="M1 1l21 21M1 22L22 1" stroke="#4B4B4B"/></svg><svg fill="none" viewBox="0 0 12 12" id="icon-close-bold" xmlns="http://www.w3.org/2000/svg"><path d="M1 11L11 1M1 1l10 10" stroke="#758795" stroke-width="2"/></svg><svg fill="none" viewBox="0 0 11 14" id="icon-doc" xmlns="http://www.w3.org/2000/svg"><path d="M10 4v9H1V1h5.727M10 4L6.727 1M10 4H6.727V1" stroke="currentColor" stroke-linejoin="round"/><path d="M3.07 10.017h-.524l.003-.361h.521c.142 0 .26-.031.356-.094a.585.585 0 00.217-.272c.05-.119.074-.261.074-.427v-.126c0-.128-.014-.24-.042-.339a.679.679 0 00-.124-.247A.514.514 0 003.352 8a.675.675 0 00-.272-.052h-.544v-.362h.544c.163 0 .31.027.445.082a1.02 1.02 0 01.576.6c.053.14.08.299.08.474v.122c0 .173-.027.331-.08.474a1.02 1.02 0 01-.578.598 1.204 1.204 0 01-.453.082zm-.267-2.432v2.432h-.46V7.585h.46zM6.54 8.74v.124c0 .184-.024.35-.073.496-.049.146-.118.27-.209.373a.91.91 0 01-.322.235 1.026 1.026 0 01-.416.082 1.03 1.03 0 01-.414-.082.927.927 0 01-.324-.235 1.079 1.079 0 01-.212-.373 1.532 1.532 0 01-.075-.496V8.74c0-.185.025-.35.075-.496.05-.146.12-.27.21-.372a.902.902 0 01.323-.238 1.03 1.03 0 01.414-.081c.152 0 .291.027.416.081a.902.902 0 01.322.238c.091.102.162.226.21.372.05.146.076.311.076.496zm-.464.124v-.128a1.48 1.48 0 00-.036-.35.757.757 0 00-.109-.255.462.462 0 00-.177-.155.516.516 0 00-.237-.054.47.47 0 00-.41.209.78.78 0 00-.111.256 1.48 1.48 0 00-.037.349v.128c0 .132.012.248.037.35a.8.8 0 00.11.257.494.494 0 00.177.157.51.51 0 00.237.053.467.467 0 00.41-.21.776.776 0 00.11-.258c.024-.1.036-.217.036-.349zM8.353 9.217h.46a.943.943 0 01-.136.432.81.81 0 01-.326.294 1.1 1.1 0 01-.506.107c-.152 0-.29-.027-.412-.08a.893.893 0 01-.313-.232 1.06 1.06 0 01-.197-.364 1.567 1.567 0 01-.068-.48V8.71c0-.177.023-.337.07-.48.047-.142.113-.263.2-.363a.896.896 0 01.316-.234c.124-.055.262-.082.414-.082.198 0 .366.037.503.11a.795.795 0 01.319.3c.076.126.121.272.137.437h-.46a.72.72 0 00-.066-.26.351.351 0 00-.157-.163.573.573 0 00-.276-.057.527.527 0 00-.235.05.431.431 0 00-.167.15.718.718 0 00-.1.248 1.548 1.548 0 00-.034.34v.19c0 .123.01.234.03.332.02.098.051.18.094.249.042.068.096.12.163.155a.5.5 0 00.24.053.606.606 0 00.273-.053.362.362 0 00.162-.157.668.668 0 00.072-.257z" fill="currentColor"/></svg><svg fill="none" viewBox="0 0 16 20" id="icon-documents" xmlns="http://www.w3.org/2000/svg"><path d="M6.363.194A2.714 2.714 0 003.648 2.91v10.856a2.714 2.714 0 002.715 2.715h6.786a2.714 2.714 0 002.715-2.715V6.301h-.003V4.827c0-.539-.214-1.056-.596-1.438L12.668.79a2.036 2.036 0 00-1.439-.596H6.361h.002zm6.786 14.929H6.364a1.357 1.357 0 01-1.357-1.358V2.91A1.357 1.357 0 016.363 1.55h4.07v2.036a2.036 2.036 0 002.037 2.036h2.035v1.44h.002v6.702a1.357 1.357 0 01-1.357 1.357zm1.074-10.857h-1.755a.679.679 0 01-.678-.679V1.832l2.433 2.434z" fill="#122A4B"/><path d="M.938 4.266A1.357 1.357 0 012.295 2.91v10.857a4.071 4.071 0 004.07 4.071h6.786a1.357 1.357 0 01-1.357 1.357H6.081a5.143 5.143 0 01-5.144-5.143V4.266z" fill="#122A4B"/></svg><svg fill="none" viewBox="0 0 9 12" id="icon-download" xmlns="http://www.w3.org/2000/svg"><path stroke="#262626" d="M0 11.2h9M7.227 6.952L4.545 9m0 0L1.827 6.952M4.545 9V0"/></svg><svg fill="none" viewBox="0 0 101 16" id="icon-enco" xmlns="http://www.w3.org/2000/svg"><path d="M99.118 8.89a2.144 2.144 0 01-2.14 2.144H84.616a2.144 2.144 0 01-2.14-2.144V6.256a2.143 2.143 0 012.14-2.144h12.348a2.143 2.143 0 012.14 2.144l.014 2.634zm-2.14-6.665H84.56a4.024 4.024 0 00-3.95 4.03V8.88a4.024 4.024 0 003.95 4.041h12.418a4.03 4.03 0 004.02-4.024V6.256a4.026 4.026 0 00-4.02-4.024M47.1 8.89h-1.881v4.097h1.88V8.889zM61.998 2.165h-1.88v4.097h1.88V2.165zM58.858 6.637H48.355a1.26 1.26 0 01-1.26-1.256V2.165H45.22V5.38a3.157 3.157 0 003.136 3.137h10.503a1.256 1.256 0 011.256 1.256v3.217h1.88V9.763a3.157 3.157 0 00-3.136-3.136M65.763 2.165h-1.88v4.097h1.88V2.165zM75.07 7.579a8.68 8.68 0 002.687-2.105l2.859-3.315h-2.491l-1.793 2.087a6.876 6.876 0 01-5.21 2.385h-4.107a3.157 3.157 0 00-3.14 3.137v3.217h1.88v-3.22a1.255 1.255 0 011.26-1.257h4.108a6.876 6.876 0 015.21 2.386l1.732 2.006h2.484l-2.806-3.234a8.771 8.771 0 00-2.688-2.105M41.821 8.89h-.417a2.62 2.62 0 01-2.572 2.143H27.41a2.62 2.62 0 01-2.572-2.144h-1.89a.838.838 0 000 .123 4.504 4.504 0 004.462 3.908h11.43a4.504 4.504 0 004.454-3.901.812.812 0 000-.123h-1.473V8.89zM43.303 6.143a4.504 4.504 0 00-4.455-3.898H27.422a4.504 4.504 0 00-4.459 3.898.839.839 0 000 .122h1.891a2.624 2.624 0 012.575-2.143h11.419a2.624 2.624 0 012.547 2.02c.017.083.025.166.024.25a.245.245 0 01-.245.245H31.28v1.88h10.173a1.817 1.817 0 001.295-.512c.227-.225.389-.51.466-.82.083-.3.12-.61.113-.92a.812.812 0 000-.122M4.849.58a.99.99 0 110 1.979.99.99 0 010-1.979zM1.985 3.099a.993.993 0 110 1.985.993.993 0 010-1.985zM.99 6.713a.993.993 0 11.006 1.986.993.993 0 01-.007-1.986zM2.094 10.254a.993.993 0 110 1.985.993.993 0 010-1.985zM8.75 13.174a.993.993 0 110 1.986.993.993 0 010-1.986zM12.157 11.571a.992.992 0 110 1.985.992.992 0 010-1.985zM14.165 8.361a.993.993 0 110 1.985.993.993 0 010-1.985zM12.02 1.5a.993.993 0 11.007 1.986.993.993 0 01-.006-1.986zM14.11 4.632a.993.993 0 110 1.986.993.993 0 010-1.986zM8.587 0a.993.993 0 110 1.986.993.993 0 010-1.986zM12.77 6.524a.849.849 0 110 1.698.849.849 0 010-1.698zM12.072 9.26a.849.849 0 11.007 1.697.849.849 0 01-.007-1.698zM9.997 11.197a.849.849 0 110 1.697.849.849 0 010-1.697zM7.193 11.728a.85.85 0 110 1.698.85.85 0 010-1.698zM4.544 10.658a.849.849 0 110 1.697.849.849 0 010-1.697zM2.896 8.361a.849.849 0 110 1.698.849.849 0 010-1.698zM2.763 5.555a.849.849 0 110 1.697.849.849 0 010-1.697zM4.205 3.099a.849.849 0 11.007 1.697.849.849 0 01-.007-1.697zM6.767 1.783a.849.849 0 11.007 1.698.849.849 0 01-.007-1.698zM9.619 2.076a.849.849 0 11.007 1.697.849.849 0 01-.007-1.697zM11.845 3.842a.849.849 0 11.007 1.698.849.849 0 01-.007-1.698zM8.147 3.33a.702.702 0 110 1.402.702.702 0 010-1.403zM10.014 4.13a.702.702 0 110 1.403.702.702 0 010-1.404zM11.131 5.803a.702.702 0 110 1.403.702.702 0 010-1.403zM11.186 7.817a.702.702 0 110 1.404.702.702 0 010-1.404zM10.092 9.528a.701.701 0 110 1.403.701.701 0 010-1.403zM8.272 10.408a.701.701 0 110 1.403.701.701 0 010-1.403zM6.233 10.165a.701.701 0 110 1.403.701.701 0 010-1.403zM4.662 8.863a.701.701 0 110 1.403.701.701 0 010-1.403zM4.06 6.957a.701.701 0 110 1.403.701.701 0 010-1.403zM4.623 4.999a.701.701 0 110 1.403.701.701 0 010-1.403zM6.123 3.65a.701.701 0 110 1.404.701.701 0 010-1.403zM7.8 5.045a.526.526 0 110 1.052.526.526 0 010-1.052zM7.882 8.89a.526.526 0 11.007 1.051.526.526 0 01-.007-1.052zM9.526 5.713a.526.526 0 11-.687.798.526.526 0 01.687-.798zM6.812 8.624a.526.526 0 11-.744.745.526.526 0 01.744-.745zM6.148 7.205a.526.526 0 11-.744.745.526.526 0 01.744-.745zM6.744 5.7a.523.523 0 11-.74.738.523.523 0 01.74-.738zM9.959 7.037a.526.526 0 11-.74.748.526.526 0 01.74-.748zM9.552 8.431a.526.526 0 11-.74.748.526.526 0 01.74-.748zM4.997 12.691a.994.994 0 11.006 1.987.994.994 0 01-.006-1.987z" fill="#122A4B"/></svg><svg fill="none" viewBox="0 0 36 60" id="icon-gallery-love" xmlns="http://www.w3.org/2000/svg"><path d="M31.412 32.624l-5.3-5.3 3.525-3.575a5 5 0 000-7.075 5.113 5.113 0 00-7.063 0l-3.475 3.575-2.65-2.65a5.125 5.125 0 00-7.076 0 5 5 0 000 7.075c1.35 1.338.35 0-1.625 1.913a5 5 0 00-1 5.587A4.925 4.925 0 003.761 40.2a5 5 0 00-2.338 8.337C8.098 55.275 11.386 60 19.099 60c6.25 0 9.512-3.287 12.375-6.15a14.999 14.999 0 00-.063-21.226zm-7.076-14.138a2.5 2.5 0 014.275 1.763c0 1.488-.962 1.988-4.275 5.3L20.8 22.024l3.537-3.538zm5.313 33.589l-1.8 1.762a12.5 12.5 0 01-17.676 0c-7.5-7.5-7.8-7.5-7.8-8.837a2.5 2.5 0 014.263-1.763c6.6 6.6 6.337 6.55 7.075 6.55a1.249 1.249 0 00.875-2.137l-8.838-8.838a2.499 2.499 0 010-3.538 2.575 2.575 0 013.538 0l8.838 8.838a1.25 1.25 0 101.775-1.762L9.436 31.887a2.502 2.502 0 013.537-3.538c11.25 11.313 10.6 10.826 11.338 10.826a1.25 1.25 0 00.888-2.125L11.086 22.899a2.5 2.5 0 010-3.538 2.5 2.5 0 013.525 0l15 15a12.5 12.5 0 01.038 17.714z" fill="#CFC393"/><path d="M18.208 14.786a1.252 1.252 0 001.776 0l6.437-6.438c4.463-4.462-2.025-11.8-7.325-6.5l-.4-.412a4.888 4.888 0 00-6.913 6.912l6.425 6.438zm-2.3-12.188c.75.225 1.013.6 2.3 1.9a1.251 1.251 0 001.776 0l1.25-1.25a2.391 2.391 0 013.375 3.388l-5.513 5.5c-5.925-5.888-6.25-5.888-6.25-7.238a2.399 2.399 0 013.062-2.3z" fill="#CFC393"/></svg><svg fill="none" viewBox="0 0 10 13" id="icon-human" xmlns="http://www.w3.org/2000/svg"><path d="M5.725 2.575a1.287 1.287 0 100-2.575 1.287 1.287 0 000 2.575zM6.355 6.61c.158.237.393.417.664.507l1.722.574.407-1.22-1.722-.574-1.07-1.606a1.298 1.298 0 00-.495-.437l-.923-.462a1.28 1.28 0 00-.887-.096l-2.056.513a1.289 1.289 0 00-.84.674L0 6.793l1.152.576 1.154-2.31L3.737 4.7l-1.161 5.372L.211 11.7l.73 1.06 2.365-1.627a1.28 1.28 0 00.528-.788l.333-1.537 1.62 1.215L6.382 13l1.262-.253-.595-2.978a1.287 1.287 0 00-.49-.777L5.16 7.944l.417-2.5.777 1.167z" fill="#7F8884"/></svg><svg fill="none" viewBox="0 0 16 16" id="icon-info" xmlns="http://www.w3.org/2000/svg"><path d="M8 0C3.589 0 0 3.589 0 8c0 4.412 3.589 8 8 8 4.412 0 8-3.588 8-8 0-4.411-3.588-8-8-8zm-.333 13.333a1.001 1.001 0 010-2 1.001 1.001 0 010 2zm1-4.066v1.066c0 .185-.15.334-.334.334H7a.333.333 0 01-.333-.334V8.667c0-.735.598-1.334 1.333-1.334S9.333 6.735 9.333 6 8.735 4.667 8 4.667 6.667 5.265 6.667 6v.333c0 .185-.15.334-.334.334H5a.333.333 0 01-.333-.334V6A3.337 3.337 0 018 2.667 3.337 3.337 0 0111.333 6a3.33 3.33 0 01-2.666 3.267z" fill="#B8C2CA"/></svg><svg fill="none" viewBox="0 0 13 13" id="icon-info-dark" xmlns="http://www.w3.org/2000/svg"><path d="M6.667.5A5.784 5.784 0 00.889 6.278a5.784 5.784 0 005.778 5.778 5.784 5.784 0 005.777-5.778A5.784 5.784 0 006.667.5zm-.241 9.63a.723.723 0 11.001-1.446.723.723 0 01-.001 1.446zm.722-2.937v.77a.24.24 0 01-.24.24h-.964a.24.24 0 01-.24-.24V6.759c0-.53.432-.963.963-.963a.964.964 0 000-1.926.964.964 0 00-.963.963v.241a.24.24 0 01-.241.24H4.5a.24.24 0 01-.24-.24v-.24a2.41 2.41 0 012.407-2.408 2.41 2.41 0 012.407 2.407 2.405 2.405 0 01-1.926 2.36z" fill="#363636"/></svg><svg fill="none" viewBox="0 0 19 17" id="icon-like" xmlns="http://www.w3.org/2000/svg"><path d="M9.95 15.924a1.838 1.838 0 01-1.046 0C6.461 15.09 1 11.61 1 5.711 1 3.107 3.098 1 5.685 1c1.534 0 2.89.742 3.742 1.888A4.66 4.66 0 0113.169 1c2.587 0 4.685 2.107 4.685 4.71 0 5.9-5.46 9.38-7.905 10.214z" stroke="currentColor" stroke-width="1.5" stroke-linecap="round" stroke-linejoin="round"/></svg><svg fill="none" viewBox="0 0 12 12" id="icon-like-gold" xmlns="http://www.w3.org/2000/svg"><path d="M11.269 6.317c.245-.324.38-.72.38-1.132 0-.653-.365-1.272-.954-1.617a.985.985 0 00-.5-.136H6.705l.087-1.79a1.559 1.559 0 00-.43-1.156A1.552 1.552 0 005.229 0C4.47 0 3.8.51 3.6 1.24L2.349 5.767h-.005V12h6.878a.968.968 0 00.386-.079 1.872 1.872 0 001.061-2.262 1.874 1.874 0 00.301-1.67 1.874 1.874 0 00.299-1.672zM0 6.234v5.3c0 .258.208.466.466.466h.946V5.768H.466A.465.465 0 000 6.234z" fill="#CFC393"/></svg><svg fill="none" viewBox="0 0 9 13" id="icon-location" xmlns="http://www.w3.org/2000/svg"><path d="M4.337.123A4.332 4.332 0 000 4.46c0 .837.267 1.636.64 2.292l2.826 4.892c.177.32.534.48.871.48.337 0 .677-.16.871-.48l2.827-4.889c.375-.656.639-1.44.639-2.292 0-2.4-1.938-4.34-4.337-4.34zm0 5.618a1.587 1.587 0 01-1.583-1.583c0-.871.712-1.583 1.583-1.583s1.583.712 1.583 1.583c0 .875-.712 1.583-1.583 1.583z" fill="#7F8884"/></svg><svg fill="none" viewBox="0 0 11 18" id="icon-ok" xmlns="http://www.w3.org/2000/svg"><path d="M10.548 10.738c.408-.409.466-.992.116-1.576-.291-.467-.817-.7-1.4-.584a1.972 1.972 0 00-.7.35c-1.81 1.226-4.26 1.168-6.07-.058l-.35-.175C1.502 8.403.86 8.52.51 9.104c-.408.583-.35 1.225.175 1.75.117.117.234.176.292.292l.058.058c.817.643 1.81 1.051 3.093 1.226l-.758.759-1.984 1.984c-.175.175-.409.467-.409.875a1.4 1.4 0 00.817 1.284c.175.117.35.117.525.117.292 0 .642-.117.876-.409l2.276-2.276.058-.058s.058 0 .058.058c.467.526.992.992 1.46 1.518l.7.7c.291.292.525.408.875.408.525.059 1.109-.291 1.342-.817a1.168 1.168 0 00-.292-1.4c-.583-.584-1.167-1.226-1.809-1.81l-.992-.991c.525-.059 1.109-.175 1.634-.409.876-.292 1.517-.7 2.043-1.225z" fill="#122A4B"/><path d="M5.529 9.104c2.51 0 4.552-1.984 4.552-4.494a4.59 4.59 0 00-1.342-3.268C7.863.467 6.754 0 5.587 0 3.078 0 1.094 2.042 1.035 4.493c0 1.226.467 2.335 1.343 3.21.817.934 1.925 1.4 3.151 1.4zM4.245 3.268a1.81 1.81 0 011.284-.525c1.05 0 1.809.817 1.809 1.809 0 1.05-.817 1.809-1.809 1.809-1.05 0-1.81-.817-1.81-1.81 0-.466.176-.933.526-1.283z" fill="#122A4B"/><path d="M10.548 10.738c.408-.409.466-.992.116-1.576-.291-.467-.817-.7-1.4-.584a1.972 1.972 0 00-.7.35c-1.81 1.226-4.26 1.168-6.07-.058l-.35-.175C1.502 8.403.86 8.52.51 9.104c-.408.583-.35 1.225.175 1.75.117.117.234.176.292.292l.058.058c.817.643 1.81 1.051 3.093 1.226l-.758.759-1.984 1.984c-.175.175-.409.467-.409.875a1.4 1.4 0 00.817 1.284c.175.117.35.117.525.117.292 0 .642-.117.876-.409l2.276-2.276.058-.058s.058 0 .058.058c.467.526.992.992 1.46 1.518l.7.7c.291.292.525.408.875.408.525.059 1.109-.291 1.342-.817a1.168 1.168 0 00-.292-1.4c-.583-.584-1.167-1.226-1.809-1.81l-.992-.991c.525-.059 1.109-.175 1.634-.409.876-.292 1.517-.7 2.043-1.225z" fill="#122A4B"/></svg><svg fill="none" viewBox="0 0 16 21" id="icon-pdf" xmlns="http://www.w3.org/2000/svg"><path d="M15 5.667v14H1V1h8.91M15 5.667L9.91 1M15 5.667H9.91V1" stroke="currentColor" stroke-linejoin="round"/><path d="M3.209 15a.126.126 0 01-.093-.037.126.126 0 01-.038-.093v-3.544c0-.04.011-.073.033-.098a.133.133 0 01.098-.038h1.459c.44 0 .784.103 1.034.31.25.207.376.508.376.904 0 .392-.125.69-.376.893-.25.2-.595.299-1.034.299h-.8v1.274c0 .04-.013.073-.039.098a.145.145 0 01-.098.033H3.21zm1.432-2.014c.21 0 .37-.049.479-.147.112-.101.169-.248.169-.44 0-.19-.055-.337-.164-.442-.105-.105-.267-.158-.484-.158h-.784v1.187h.784zM6.803 15a.126.126 0 01-.093-.037.126.126 0 01-.038-.093v-3.544c0-.04.011-.073.033-.098a.133.133 0 01.098-.038h1.328c1.071 0 1.617.493 1.64 1.48.006.21.01.352.01.425 0 .069-.004.209-.01.42-.015.507-.153.883-.415 1.126-.257.24-.657.36-1.197.36H6.803zm1.328-.631c.302 0 .52-.067.654-.201.134-.135.205-.358.212-.67.007-.218.011-.354.011-.408 0-.059-.004-.193-.01-.403-.008-.298-.083-.516-.224-.654-.142-.141-.365-.212-.67-.212H7.44v2.548h.691zM10.631 15a.126.126 0 01-.092-.037.126.126 0 01-.039-.093v-3.544c0-.04.011-.073.033-.098a.133.133 0 01.098-.038H13c.04 0 .073.012.098.038a.133.133 0 01.039.098v.392a.126.126 0 01-.039.092.133.133 0 01-.098.038h-1.742v1.024h1.633c.04 0 .073.012.098.038a.126.126 0 01.039.092v.393a.126.126 0 01-.038.092.133.133 0 01-.099.038h-1.633v1.345a.126.126 0 01-.038.093.133.133 0 01-.098.038h-.49z" fill="currentColor"/></svg><svg fill="none" viewBox="0 0 13 5" id="icon-phone" xmlns="http://www.w3.org/2000/svg"><path d="M12.416 2.43A8.824 8.824 0 006.322 0 8.83 8.83 0 00.224 2.435.762.762 0 000 2.979c0 .21.083.408.224.54L1.476 4.77c.289.288.809.28 1.077.012a5.533 5.533 0 011.279-.89c.282-.136.383-.47.383-.737V1.772c.672-.18 1.436-.197 2.107-.197.712 0 1.457.017 2.108.196v1.385c0 .35.141.627.375.74.476.239.91.538 1.285.89a.786.786 0 00.534.214c.207 0 .4-.079.545-.223l1.252-1.252a.765.765 0 00.224-.546c0-.207-.08-.4-.23-.55z" fill="currentColor"/></svg><svg fill="none" viewBox="0 0 56 54" id="icon-play" xmlns="http://www.w3.org/2000/svg"><path fill-rule="evenodd" clip-rule="evenodd" d="M55.006 27c0 14.912-12.313 27-27.503 27S0 41.912 0 27 12.314 0 27.503 0c15.19 0 27.503 12.088 27.503 27zm-19.79.192a1 1 0 010 1.616l-9.626 7.03a1 1 0 01-1.59-.807V20.97a1 1 0 011.59-.808l9.626 7.031z" fill="currentColor"/></svg><svg fill="none" viewBox="0 0 15 15" id="icon-plus-white" xmlns="http://www.w3.org/2000/svg"><path d="M7.5 0v15m7.188-7.5H.312" stroke="#fff" stroke-width="2"/></svg><svg fill="none" viewBox="0 0 20 18" id="icon-telegram" xmlns="http://www.w3.org/2000/svg"><path d="M20.002.618l-3.085 16.104s-.432 1.117-1.618.581l-7.117-5.65-.033-.017c.962-.894 8.417-7.836 8.742-8.15.505-.488.192-.778-.394-.41L5.485 10.318l-4.248-1.48s-.669-.246-.733-.782c-.065-.536.755-.826.755-.826L18.578.194s1.424-.648 1.424.424z" fill="currentColor"/></svg><svg fill="none" viewBox="0 0 18 18" id="icon-user" xmlns="http://www.w3.org/2000/svg"><path d="M9 8.998a3.75 3.75 0 100-7.5 3.75 3.75 0 000 7.5zM15.44 16.5c0-2.902-2.888-5.25-6.443-5.25-3.555 0-6.442 2.348-6.442 5.25" stroke="currentColor" stroke-width="1.5" stroke-linecap="round" stroke-linejoin="round"/></svg><svg fill="none" viewBox="0 0 28 18" id="icon-vk" xmlns="http://www.w3.org/2000/svg"><path d="M15.31 17.449C5.94 17.449.597 10.899.374 0h4.693c.154 8 3.613 11.388 6.354 12.087V0h4.418v6.9c2.706-.298 5.55-3.442 6.508-6.9h4.419a13.447 13.447 0 01-2.116 4.988 13.157 13.157 0 01-3.895 3.71 13.578 13.578 0 014.44 3.605 13.899 13.899 0 012.598 5.146H22.93a8.65 8.65 0 00-2.622-4.21 8.383 8.383 0 00-4.468-2.026v6.236h-.53z" fill="currentColor"/></svg><svg fill="none" viewBox="0 0 26 15" id="icon-vk-bold" xmlns="http://www.w3.org/2000/svg"><path d="M22.293 9.334c.86.843 1.77 1.627 2.537 2.555.34.409.664.834.91 1.311.35.682.035 1.423-.57 1.465H21.4c-.97.077-1.754-.315-2.4-.98-.52-.536-1.005-1.098-1.508-1.651a3.85 3.85 0 00-.68-.605c-.52-.332-.962-.23-1.26.306-.298.546-.366 1.15-.4 1.763-.043.886-.307 1.125-1.2 1.167-1.907.094-3.72-.196-5.397-1.158-1.481-.852-2.63-2.044-3.635-3.407C2.963 7.452 1.473 4.548.128 1.567-.17.894.052.537.792.519a89.034 89.034 0 013.694 0c.503.009.834.299 1.022.767.664 1.635 1.48 3.202 2.502 4.641.273.384.553.767.945 1.04.434.297.775.204.979-.29.128-.307.187-.639.221-.971.094-1.141.11-2.274-.06-3.415-.102-.707-.502-1.167-1.208-1.303C8.529.92 8.581.784 8.751.579 9.057.221 9.338 0 9.908 0h4.265c.672.136.817.434.91 1.107v4.744c-.008.264.128 1.039.605 1.21.374.118.63-.18.851-.418 1.022-1.082 1.754-2.368 2.4-3.696.29-.588.537-1.193.775-1.797.179-.452.46-.673.962-.665h4.103c.119 0 .247 0 .366.026.69.12.885.417.664 1.09-.34 1.065-.988 1.942-1.635 2.836-.68.945-1.413 1.865-2.094 2.819-.604.886-.561 1.32.213 2.078z" fill="currentColor"/></svg><svg fill="none" viewBox="0 0 25 18" id="icon-youtube" xmlns="http://www.w3.org/2000/svg"><path d="M24.375 2.726a3.12 3.12 0 00-2.2-2.204C20.233 0 12.447 0 12.447 0S4.662 0 2.72.52a3.115 3.115 0 00-2.2 2.203C0 4.668 0 8.724 0 8.724s0 4.057.52 6a3.12 3.12 0 002.2 2.202c1.942.523 9.727.523 9.727.523s7.786 0 9.728-.523a3.115 3.115 0 002.2-2.203c.52-1.942.52-5.999.52-5.999s0-4.056-.52-5.998zm-14.4 9.722V5l6.446 3.696-6.446 3.75z" fill="currentColor"/></svg></svg>